<svg xmlns="http://www.w3.org/2000/svg" width="720" height="361" viewBox="0 0 720 361">
<path fill="#000000" fill-rule="evenodd" d="M 172 348 L 172 350 L 174 350 L 175 351 L 200 351 L 201 350 L 211 350 L 212 349 L 231 349 L 232 350 L 237 350 L 238 351 L 242 351 L 243 352 L 245 352 L 246 353 L 248 353 L 249 354 L 254 354 L 255 355 L 257 355 L 258 354 L 264 354 L 267 352 L 269 352 L 270 351 L 271 351 L 273 349 L 273 348 L 272 348 L 271 347 L 269 347 L 268 346 L 266 346 L 264 344 L 261 343 L 259 341 L 256 340 L 254 338 L 253 338 L 252 337 L 249 336 L 247 334 L 245 334 L 242 332 L 240 332 L 239 331 L 237 331 L 236 330 L 233 330 L 232 329 L 222 329 L 221 328 L 217 328 L 216 329 L 209 329 L 208 330 L 205 330 L 204 331 L 202 331 L 201 332 L 199 332 L 198 333 L 196 333 L 195 334 L 194 334 L 193 335 L 192 335 L 191 336 L 190 336 L 189 337 L 186 338 L 184 340 L 183 340 L 181 342 L 180 342 L 178 344 L 177 344 L 173 348 Z M 400 346 L 399 345 L 399 344 L 398 344 L 397 343 L 397 342 L 396 341 L 395 341 L 392 338 L 391 338 L 389 336 L 388 336 L 387 335 L 386 335 L 381 332 L 379 332 L 378 331 L 376 331 L 375 330 L 373 330 L 372 329 L 369 329 L 368 328 L 364 328 L 363 327 L 358 327 L 357 326 L 345 326 L 344 327 L 336 327 L 335 328 L 331 328 L 330 329 L 326 329 L 325 330 L 322 330 L 321 331 L 319 331 L 318 332 L 315 332 L 314 333 L 312 333 L 311 334 L 307 334 L 306 335 L 301 335 L 300 336 L 286 336 L 285 335 L 281 335 L 280 334 L 278 334 L 275 332 L 273 332 L 272 331 L 270 331 L 270 333 L 271 334 L 272 337 L 276 341 L 277 341 L 279 343 L 280 343 L 283 345 L 285 345 L 286 346 L 288 346 L 289 347 L 291 347 L 292 348 L 295 348 L 296 349 L 299 349 L 300 350 L 306 350 L 307 351 L 318 351 L 319 352 L 333 352 L 334 351 L 341 351 L 342 350 L 346 350 L 347 349 L 350 349 L 351 348 L 353 348 L 354 347 L 356 347 L 357 346 L 359 346 L 360 345 L 362 345 L 363 344 L 366 344 L 367 343 L 371 343 L 372 342 L 383 342 L 384 343 L 389 343 L 390 344 L 392 344 L 393 345 L 395 345 L 396 346 Z M 509 331 L 509 332 L 511 334 L 514 335 L 516 337 L 518 337 L 521 339 L 524 339 L 525 340 L 528 340 L 529 341 L 533 341 L 534 342 L 551 342 L 552 341 L 556 341 L 557 340 L 559 340 L 560 339 L 561 339 L 562 338 L 563 338 L 568 335 L 570 335 L 571 334 L 586 334 L 587 335 L 590 335 L 591 336 L 594 336 L 597 338 L 599 338 L 600 339 L 602 339 L 600 337 L 600 336 L 592 328 L 591 328 L 588 325 L 587 325 L 586 324 L 585 324 L 584 323 L 583 323 L 578 320 L 576 320 L 575 319 L 572 319 L 571 318 L 568 318 L 567 317 L 554 317 L 553 318 L 549 318 L 548 319 L 546 319 L 543 321 L 541 321 L 540 322 L 539 322 L 538 323 L 537 323 L 532 326 L 530 326 L 529 327 L 527 327 L 526 328 L 524 328 L 523 329 L 521 329 L 520 330 L 517 330 L 516 331 Z M 201 322 L 197 318 L 196 318 L 195 317 L 193 317 L 192 316 L 185 316 L 184 317 L 179 317 L 178 318 L 175 318 L 174 319 L 171 319 L 170 320 L 168 320 L 167 321 L 165 321 L 164 322 L 163 322 L 158 325 L 156 325 L 155 326 L 154 326 L 153 327 L 152 327 L 151 328 L 150 328 L 149 329 L 148 329 L 147 330 L 146 330 L 145 331 L 144 331 L 143 332 L 142 332 L 137 335 L 135 335 L 130 338 L 128 338 L 127 339 L 126 339 L 125 340 L 123 340 L 122 341 L 119 341 L 118 342 L 116 342 L 115 343 L 112 343 L 111 344 L 107 344 L 106 345 L 100 345 L 99 346 L 88 346 L 87 345 L 84 345 L 84 346 L 88 350 L 89 350 L 91 352 L 93 352 L 98 355 L 100 355 L 101 356 L 104 356 L 105 357 L 109 357 L 110 358 L 130 358 L 131 357 L 135 357 L 136 356 L 138 356 L 139 355 L 141 355 L 142 354 L 144 354 L 149 351 L 151 351 L 153 349 L 154 349 L 155 348 L 158 347 L 160 345 L 161 345 L 162 344 L 163 344 L 165 342 L 168 341 L 170 339 L 171 339 L 176 335 L 177 335 L 178 334 L 179 334 L 184 331 L 186 331 L 187 330 L 189 330 L 190 329 L 194 329 L 195 328 L 200 328 L 201 327 Z M 525 313 L 524 313 L 523 312 L 519 312 L 518 313 L 517 312 L 506 312 L 505 311 L 500 311 L 499 310 L 483 310 L 482 311 L 475 311 L 474 312 L 469 312 L 468 313 L 464 313 L 463 314 L 460 314 L 459 315 L 456 315 L 455 316 L 453 316 L 450 318 L 448 318 L 445 320 L 443 320 L 441 322 L 440 322 L 439 323 L 436 324 L 434 326 L 433 326 L 427 332 L 430 332 L 431 331 L 434 331 L 435 330 L 438 330 L 439 329 L 456 329 L 457 330 L 462 330 L 463 331 L 467 331 L 468 332 L 473 332 L 474 333 L 490 333 L 491 332 L 495 332 L 496 331 L 498 331 L 499 330 L 501 330 L 502 329 L 504 329 L 507 327 L 509 327 L 510 326 L 513 325 L 515 323 L 516 323 L 525 314 Z M 2 324 L 2 326 L 3 327 L 3 328 L 4 328 L 5 329 L 11 329 L 12 328 L 18 328 L 19 327 L 35 327 L 36 328 L 38 328 L 39 329 L 41 329 L 42 330 L 44 330 L 47 332 L 49 332 L 52 334 L 54 334 L 55 335 L 57 335 L 58 336 L 60 336 L 61 337 L 64 337 L 65 338 L 69 338 L 70 339 L 83 339 L 84 338 L 90 338 L 91 337 L 94 337 L 95 336 L 98 336 L 99 335 L 102 335 L 103 334 L 105 334 L 106 333 L 108 333 L 109 332 L 111 332 L 116 329 L 116 328 L 111 328 L 110 329 L 96 329 L 95 328 L 92 328 L 91 327 L 88 327 L 87 326 L 85 326 L 80 323 L 78 323 L 77 322 L 76 322 L 75 321 L 74 321 L 73 320 L 72 320 L 71 319 L 70 319 L 69 318 L 68 318 L 67 317 L 66 317 L 65 316 L 64 316 L 63 315 L 62 315 L 57 312 L 55 312 L 54 311 L 52 311 L 51 310 L 49 310 L 48 309 L 45 309 L 44 308 L 27 308 L 26 309 L 24 309 L 23 310 L 21 310 L 20 311 L 18 311 L 17 312 L 16 312 L 15 313 L 12 314 L 10 316 L 9 316 L 3 322 L 3 323 Z M 253 322 L 264 322 L 265 321 L 275 321 L 276 322 L 281 322 L 282 323 L 287 323 L 288 324 L 306 324 L 307 323 L 312 323 L 313 322 L 316 322 L 317 321 L 321 321 L 322 320 L 325 320 L 326 319 L 329 319 L 330 318 L 337 318 L 338 317 L 349 317 L 349 316 L 348 316 L 345 314 L 343 314 L 342 313 L 340 313 L 339 312 L 337 312 L 336 311 L 334 311 L 333 310 L 331 310 L 330 309 L 327 309 L 326 308 L 324 308 L 323 307 L 320 307 L 319 306 L 317 306 L 316 305 L 313 305 L 312 304 L 308 304 L 307 303 L 293 303 L 292 304 L 288 304 L 287 305 L 285 305 L 284 306 L 282 306 L 281 307 L 279 307 L 276 309 L 274 309 L 273 310 L 272 310 L 271 311 L 270 311 L 269 312 L 268 312 L 267 313 L 264 314 L 259 318 L 258 318 L 257 319 L 254 320 L 253 321 Z M 169 310 L 169 309 L 167 307 L 166 307 L 164 305 L 163 305 L 162 304 L 161 304 L 156 301 L 154 301 L 153 300 L 151 300 L 150 299 L 147 299 L 146 298 L 142 298 L 141 297 L 139 297 L 138 298 L 129 298 L 128 299 L 126 299 L 125 300 L 123 300 L 122 301 L 120 301 L 119 302 L 117 302 L 112 305 L 110 305 L 109 306 L 107 306 L 106 307 L 103 307 L 102 308 L 99 308 L 98 309 L 77 309 L 76 308 L 74 308 L 74 309 L 75 309 L 76 310 L 77 310 L 78 311 L 79 311 L 80 312 L 81 312 L 86 315 L 88 315 L 89 316 L 91 316 L 92 317 L 94 317 L 95 318 L 98 318 L 99 319 L 104 319 L 105 320 L 122 320 L 123 319 L 128 319 L 129 318 L 132 318 L 133 317 L 135 317 L 136 316 L 139 316 L 140 315 L 143 315 L 144 314 L 146 314 L 147 313 L 150 313 L 151 312 L 154 312 L 155 311 L 161 311 L 162 310 Z M 661 298 L 659 296 L 652 296 L 647 299 L 645 299 L 644 300 L 642 300 L 641 301 L 639 301 L 638 302 L 634 302 L 633 303 L 616 303 L 615 302 L 611 302 L 610 301 L 608 301 L 607 300 L 604 300 L 603 299 L 600 299 L 599 298 L 594 298 L 593 297 L 585 297 L 584 298 L 580 298 L 579 299 L 577 299 L 576 300 L 574 300 L 573 301 L 572 301 L 571 302 L 570 302 L 569 303 L 566 304 L 564 306 L 563 306 L 561 308 L 560 308 L 558 310 L 557 310 L 556 311 L 556 312 L 566 312 L 567 311 L 568 312 L 574 312 L 575 313 L 578 313 L 579 314 L 581 314 L 582 315 L 584 315 L 585 316 L 587 316 L 588 317 L 590 317 L 591 318 L 595 318 L 596 319 L 598 319 L 599 320 L 604 320 L 605 321 L 611 321 L 612 322 L 623 322 L 624 321 L 630 321 L 631 320 L 634 320 L 635 319 L 637 319 L 638 318 L 640 318 L 641 317 L 642 317 L 643 316 L 644 316 L 645 315 L 648 314 L 650 312 L 653 311 L 655 309 L 656 309 L 660 305 L 660 303 L 661 302 Z M 482 300 L 479 297 L 478 297 L 477 296 L 476 296 L 471 293 L 469 293 L 468 292 L 465 292 L 464 291 L 461 291 L 460 290 L 453 290 L 452 289 L 447 289 L 446 290 L 438 290 L 437 291 L 435 291 L 434 292 L 431 292 L 430 293 L 429 293 L 428 294 L 425 295 L 423 297 L 422 297 L 420 299 L 419 299 L 417 301 L 416 301 L 414 303 L 413 303 L 408 307 L 407 307 L 402 310 L 399 310 L 398 311 L 396 311 L 395 312 L 388 312 L 387 313 L 369 313 L 371 315 L 372 315 L 374 317 L 375 317 L 378 319 L 380 319 L 383 321 L 386 321 L 387 322 L 389 322 L 390 323 L 393 323 L 394 324 L 410 324 L 411 323 L 416 323 L 417 322 L 419 322 L 420 321 L 422 321 L 423 320 L 424 320 L 425 319 L 428 318 L 439 308 L 440 308 L 442 306 L 443 306 L 446 304 L 448 304 L 449 303 L 451 303 L 452 302 L 464 302 L 465 303 L 474 303 L 475 302 L 479 302 Z M 574 297 L 574 295 L 572 293 L 572 292 L 571 292 L 568 289 L 567 289 L 565 287 L 564 287 L 563 286 L 561 286 L 558 284 L 555 284 L 554 283 L 550 283 L 549 282 L 540 282 L 539 283 L 533 283 L 532 284 L 529 284 L 528 285 L 525 285 L 524 286 L 522 286 L 521 287 L 519 287 L 518 288 L 516 288 L 515 289 L 513 289 L 512 290 L 509 290 L 508 291 L 503 291 L 502 292 L 496 292 L 495 291 L 490 291 L 489 290 L 486 290 L 490 294 L 493 295 L 495 297 L 496 297 L 497 298 L 498 298 L 503 301 L 505 301 L 506 302 L 509 302 L 510 303 L 512 303 L 513 304 L 516 304 L 517 305 L 523 305 L 524 306 L 536 306 L 537 305 L 541 305 L 542 304 L 545 304 L 546 303 L 548 303 L 549 302 L 551 302 L 552 301 L 554 301 L 555 300 L 558 300 L 559 299 L 561 299 L 562 298 L 569 298 L 570 297 Z M 279 294 L 280 294 L 281 295 L 284 295 L 285 294 L 314 294 L 315 295 L 319 295 L 320 296 L 324 296 L 325 297 L 328 297 L 329 298 L 331 298 L 332 299 L 335 299 L 336 300 L 339 300 L 340 301 L 344 301 L 345 302 L 349 302 L 350 303 L 357 303 L 358 304 L 376 304 L 377 303 L 384 303 L 385 302 L 388 302 L 389 301 L 391 301 L 392 300 L 394 300 L 395 299 L 397 299 L 398 298 L 399 298 L 404 295 L 406 295 L 407 294 L 408 294 L 410 292 L 398 292 L 397 291 L 390 291 L 389 290 L 385 290 L 384 289 L 380 289 L 379 288 L 376 288 L 375 287 L 373 287 L 372 286 L 370 286 L 369 285 L 367 285 L 366 284 L 364 284 L 361 282 L 359 282 L 358 281 L 356 281 L 355 280 L 352 280 L 351 279 L 349 279 L 348 278 L 345 278 L 344 277 L 340 277 L 339 276 L 321 276 L 320 277 L 315 277 L 314 278 L 310 278 L 309 279 L 306 279 L 305 280 L 303 280 L 302 281 L 300 281 L 299 282 L 298 282 L 297 283 L 296 283 L 295 284 L 294 284 L 293 285 L 292 285 L 291 286 L 288 287 L 286 289 L 285 289 L 283 291 L 282 291 Z M 137 291 L 137 290 L 132 285 L 131 285 L 128 282 L 125 281 L 123 279 L 121 279 L 118 277 L 116 277 L 115 276 L 113 276 L 112 275 L 109 275 L 108 274 L 95 274 L 94 275 L 90 275 L 89 276 L 87 276 L 86 277 L 83 277 L 82 278 L 80 278 L 79 279 L 77 279 L 74 281 L 72 281 L 69 283 L 67 283 L 62 286 L 59 286 L 58 287 L 42 287 L 41 286 L 37 286 L 36 285 L 30 285 L 29 284 L 28 285 L 27 285 L 25 287 L 25 289 L 26 290 L 29 291 L 34 295 L 35 295 L 36 296 L 37 296 L 38 297 L 39 297 L 40 298 L 41 298 L 42 299 L 43 299 L 48 302 L 51 302 L 52 303 L 54 303 L 55 304 L 60 304 L 61 305 L 69 305 L 70 304 L 75 304 L 76 303 L 79 303 L 80 302 L 83 302 L 84 301 L 86 301 L 91 298 L 93 298 L 94 297 L 96 297 L 99 295 L 101 295 L 102 294 L 104 294 L 105 293 L 108 293 L 109 292 L 113 292 L 114 291 L 119 291 L 120 290 L 129 290 L 130 291 Z M 712 271 L 710 269 L 703 269 L 702 270 L 700 270 L 689 281 L 689 282 L 679 292 L 678 292 L 676 294 L 675 294 L 670 298 L 667 298 L 666 299 L 664 299 L 664 300 L 665 301 L 666 301 L 671 304 L 673 304 L 676 306 L 678 306 L 679 307 L 681 307 L 682 308 L 685 308 L 686 309 L 690 309 L 691 310 L 703 310 L 704 309 L 706 309 L 707 308 L 709 308 L 710 307 L 711 307 L 714 304 L 714 303 L 716 301 L 716 300 L 717 299 L 717 296 L 716 295 L 716 294 L 714 292 L 708 292 L 707 291 L 711 287 L 711 286 L 713 283 L 713 280 L 714 279 L 714 277 L 713 276 L 713 273 L 712 272 Z M 547 279 L 547 280 L 548 280 L 549 279 L 557 279 L 558 278 L 560 278 L 561 279 L 566 279 L 567 280 L 569 280 L 572 282 L 574 282 L 575 283 L 576 283 L 577 284 L 578 284 L 583 287 L 585 287 L 590 290 L 592 290 L 593 291 L 595 291 L 596 292 L 598 292 L 599 293 L 601 293 L 602 294 L 607 294 L 608 295 L 622 295 L 623 294 L 626 294 L 627 293 L 630 293 L 631 292 L 632 292 L 633 291 L 636 290 L 639 287 L 640 287 L 644 283 L 634 283 L 633 282 L 627 282 L 626 281 L 623 281 L 622 280 L 620 280 L 615 277 L 613 277 L 610 275 L 608 275 L 603 272 L 601 272 L 600 271 L 598 271 L 597 270 L 595 270 L 594 269 L 592 269 L 591 268 L 587 268 L 586 267 L 572 267 L 571 268 L 568 268 L 567 269 L 565 269 L 564 270 L 563 270 L 562 271 L 561 271 L 560 272 L 559 272 L 558 273 L 557 273 L 556 274 L 555 274 L 554 275 L 551 276 L 549 278 L 548 278 Z M 122 273 L 123 273 L 124 274 L 126 274 L 127 275 L 129 275 L 130 276 L 133 276 L 134 277 L 136 277 L 137 278 L 139 278 L 140 279 L 142 279 L 143 280 L 145 280 L 146 281 L 147 281 L 148 282 L 149 282 L 150 283 L 151 283 L 152 284 L 155 285 L 157 287 L 158 287 L 160 289 L 161 289 L 163 291 L 164 291 L 166 293 L 167 293 L 169 295 L 170 295 L 172 297 L 173 297 L 178 301 L 181 302 L 183 304 L 184 304 L 189 307 L 191 307 L 196 310 L 198 310 L 199 311 L 201 311 L 204 313 L 207 313 L 208 314 L 210 314 L 211 315 L 214 315 L 215 316 L 221 316 L 222 317 L 237 317 L 238 316 L 243 316 L 244 315 L 246 315 L 247 314 L 250 314 L 251 313 L 252 313 L 253 312 L 254 312 L 255 311 L 256 311 L 257 310 L 260 309 L 262 307 L 263 307 L 265 305 L 266 305 L 271 300 L 271 299 L 273 296 L 273 293 L 272 293 L 269 295 L 267 295 L 266 296 L 264 296 L 263 297 L 260 297 L 259 298 L 255 298 L 254 299 L 248 299 L 247 300 L 232 300 L 231 299 L 225 299 L 224 298 L 221 298 L 220 297 L 217 297 L 214 295 L 212 295 L 211 294 L 209 294 L 208 293 L 207 293 L 206 292 L 205 292 L 204 291 L 201 290 L 199 288 L 198 288 L 197 287 L 196 287 L 194 285 L 191 284 L 186 280 L 185 280 L 184 279 L 183 279 L 181 277 L 178 276 L 175 273 L 174 273 L 173 272 L 172 272 L 171 271 L 170 271 L 165 268 L 163 268 L 162 267 L 160 267 L 159 266 L 154 266 L 153 265 L 149 265 L 148 266 L 140 266 L 139 267 L 136 267 L 135 268 L 133 268 L 132 269 L 130 269 L 129 270 L 127 270 Z M 173 265 L 176 267 L 178 267 L 181 269 L 183 269 L 184 270 L 185 270 L 190 273 L 192 273 L 194 275 L 195 275 L 196 276 L 197 276 L 198 277 L 199 277 L 200 278 L 201 278 L 202 279 L 203 279 L 204 280 L 205 280 L 206 281 L 207 281 L 208 282 L 209 282 L 210 283 L 211 283 L 212 284 L 213 284 L 214 285 L 215 285 L 216 286 L 217 286 L 218 287 L 219 287 L 224 290 L 226 290 L 227 291 L 230 291 L 231 292 L 235 292 L 236 293 L 254 293 L 255 292 L 259 292 L 260 291 L 263 291 L 264 290 L 266 290 L 267 289 L 269 289 L 270 288 L 271 288 L 276 285 L 278 285 L 280 283 L 281 283 L 282 282 L 283 282 L 284 281 L 285 281 L 286 280 L 287 280 L 288 279 L 289 279 L 290 278 L 291 278 L 292 277 L 293 277 L 294 276 L 295 276 L 296 275 L 299 274 L 302 271 L 302 267 L 301 267 L 300 266 L 296 266 L 295 265 L 286 265 L 285 266 L 281 266 L 280 267 L 276 267 L 275 268 L 272 268 L 271 269 L 268 269 L 267 270 L 265 270 L 264 271 L 262 271 L 259 273 L 257 273 L 256 274 L 254 274 L 253 275 L 251 275 L 250 276 L 238 276 L 237 275 L 235 275 L 234 274 L 233 274 L 232 273 L 231 273 L 230 272 L 229 272 L 228 271 L 227 271 L 226 270 L 225 270 L 220 267 L 218 267 L 217 266 L 215 266 L 214 265 L 212 265 L 211 264 L 208 264 L 207 263 L 183 263 L 182 264 L 177 264 L 176 265 Z M 565 258 L 564 257 L 562 257 L 561 256 L 540 256 L 539 257 L 535 257 L 534 258 L 532 258 L 531 259 L 529 259 L 528 260 L 527 260 L 526 261 L 525 261 L 524 262 L 523 262 L 522 263 L 519 264 L 517 266 L 514 267 L 512 269 L 511 269 L 510 270 L 508 270 L 507 271 L 506 271 L 505 272 L 503 272 L 502 273 L 499 273 L 498 274 L 495 274 L 494 275 L 485 275 L 484 276 L 478 276 L 477 275 L 471 275 L 470 274 L 466 274 L 466 275 L 467 276 L 467 277 L 471 281 L 472 281 L 474 283 L 475 283 L 476 284 L 478 284 L 479 285 L 481 285 L 482 286 L 486 286 L 487 287 L 509 287 L 510 286 L 513 286 L 514 285 L 516 285 L 517 284 L 519 284 L 520 283 L 522 283 L 523 282 L 525 282 L 528 280 L 530 280 L 531 279 L 532 279 L 533 278 L 534 278 L 535 277 L 538 276 L 540 274 L 543 273 L 545 271 L 546 271 L 548 269 L 549 269 L 551 267 L 552 267 L 557 263 L 560 262 Z M 477 258 L 476 257 L 472 257 L 471 256 L 463 256 L 462 255 L 441 255 L 440 256 L 435 256 L 434 257 L 432 257 L 431 258 L 429 258 L 428 259 L 426 259 L 425 260 L 423 260 L 420 262 L 418 262 L 417 263 L 415 263 L 414 264 L 411 264 L 410 265 L 402 265 L 401 266 L 397 266 L 396 265 L 382 265 L 381 264 L 353 264 L 352 265 L 348 265 L 347 266 L 344 266 L 343 267 L 340 268 L 343 270 L 345 270 L 348 272 L 350 272 L 351 273 L 352 273 L 353 274 L 355 274 L 358 276 L 360 276 L 361 277 L 363 277 L 364 278 L 366 278 L 367 279 L 370 279 L 371 280 L 373 280 L 374 281 L 377 281 L 378 282 L 382 282 L 383 283 L 387 283 L 388 284 L 394 284 L 395 285 L 424 285 L 425 284 L 430 284 L 431 283 L 435 283 L 436 282 L 438 282 L 439 281 L 441 281 L 444 279 L 446 279 L 447 278 L 449 278 L 450 277 L 453 276 L 455 274 L 458 273 L 460 271 L 461 271 L 462 270 L 463 270 L 465 268 L 466 268 L 469 265 L 470 265 Z M 645 253 L 645 250 L 644 249 L 644 247 L 643 246 L 643 245 L 640 242 L 634 242 L 633 243 L 632 243 L 627 246 L 625 246 L 622 248 L 619 248 L 618 249 L 607 249 L 606 248 L 602 248 L 601 247 L 599 247 L 598 246 L 596 246 L 595 245 L 592 245 L 591 244 L 586 244 L 585 243 L 577 243 L 576 244 L 571 244 L 570 245 L 568 245 L 567 246 L 565 246 L 564 247 L 563 247 L 558 250 L 559 251 L 572 251 L 573 252 L 576 252 L 577 253 L 579 253 L 580 254 L 581 254 L 582 255 L 583 255 L 584 256 L 585 256 L 586 257 L 589 258 L 591 260 L 593 260 L 594 261 L 595 261 L 596 262 L 597 262 L 598 263 L 599 263 L 604 266 L 606 266 L 609 268 L 611 268 L 612 269 L 615 269 L 616 270 L 625 270 L 626 269 L 629 269 L 630 268 L 632 268 L 633 267 L 634 267 L 636 265 L 637 265 L 643 259 L 643 258 L 644 257 L 644 254 Z M 662 235 L 661 235 L 660 234 L 653 234 L 652 235 L 651 235 L 649 237 L 649 238 L 647 241 L 647 244 L 648 245 L 648 253 L 649 254 L 649 256 L 648 257 L 648 262 L 647 263 L 646 266 L 639 273 L 638 273 L 633 276 L 634 277 L 640 277 L 641 276 L 645 276 L 646 275 L 649 275 L 650 274 L 653 273 L 655 271 L 656 271 L 663 264 L 663 263 L 666 258 L 666 255 L 667 254 L 667 244 L 666 243 L 666 240 L 665 239 L 665 238 Z M 684 218 L 680 218 L 679 219 L 677 219 L 673 223 L 673 224 L 672 225 L 672 235 L 673 236 L 673 249 L 672 250 L 672 253 L 671 254 L 671 256 L 670 257 L 670 259 L 669 260 L 669 261 L 668 262 L 668 263 L 667 264 L 667 265 L 666 266 L 665 269 L 663 271 L 662 274 L 660 276 L 658 282 L 659 282 L 660 281 L 663 280 L 665 278 L 668 277 L 670 275 L 671 275 L 674 272 L 675 272 L 687 260 L 687 259 L 689 257 L 689 256 L 692 251 L 692 249 L 693 248 L 693 246 L 694 245 L 694 231 L 693 230 L 693 228 L 692 227 L 691 224 L 689 222 L 689 221 L 688 221 L 686 219 L 685 219 Z M 450 180 L 449 181 L 449 193 L 450 194 L 450 200 L 452 200 L 452 193 L 454 191 L 459 191 L 460 192 L 460 200 L 463 200 L 463 181 L 462 180 L 460 180 L 460 187 L 458 189 L 454 189 L 452 187 L 452 180 Z M 434 180 L 433 181 L 433 182 L 434 183 L 437 183 L 438 184 L 438 200 L 441 200 L 441 186 L 443 183 L 447 183 L 447 181 L 446 180 Z M 418 180 L 417 181 L 417 195 L 418 196 L 418 198 L 420 200 L 421 200 L 422 201 L 426 201 L 427 200 L 428 200 L 430 198 L 430 195 L 431 194 L 431 181 L 430 180 L 428 180 L 428 195 L 425 198 L 423 198 L 420 195 L 420 180 Z M 401 180 L 400 181 L 400 199 L 401 200 L 403 200 L 403 193 L 404 192 L 406 192 L 410 197 L 411 200 L 415 200 L 414 199 L 414 198 L 413 197 L 412 194 L 410 192 L 413 189 L 413 188 L 414 187 L 414 185 L 413 184 L 413 183 L 411 181 L 410 181 L 409 180 Z M 403 184 L 404 183 L 408 183 L 411 185 L 411 187 L 409 189 L 404 189 L 403 188 Z M 385 180 L 385 183 L 389 183 L 390 184 L 390 200 L 392 200 L 393 199 L 393 184 L 394 183 L 398 183 L 398 181 L 397 180 Z M 336 180 L 336 200 L 339 200 L 339 194 L 341 192 L 342 192 L 343 193 L 343 194 L 344 195 L 344 196 L 345 197 L 346 200 L 350 200 L 350 199 L 349 198 L 348 195 L 346 193 L 346 192 L 344 189 L 345 186 L 350 181 L 350 180 L 347 180 L 342 185 L 342 186 L 340 188 L 339 187 L 339 181 L 338 180 Z M 321 180 L 320 181 L 320 200 L 332 200 L 332 198 L 324 198 L 323 197 L 323 192 L 324 191 L 331 191 L 331 188 L 330 189 L 327 189 L 326 188 L 324 188 L 323 187 L 323 184 L 324 183 L 332 183 L 332 181 L 331 180 Z M 305 180 L 304 181 L 304 200 L 316 200 L 316 198 L 308 198 L 307 197 L 307 192 L 308 191 L 315 191 L 315 189 L 308 189 L 307 188 L 307 184 L 308 183 L 316 183 L 316 180 Z M 292 180 L 291 181 L 290 181 L 288 183 L 288 188 L 291 191 L 293 191 L 294 192 L 296 192 L 298 195 L 295 198 L 293 198 L 291 196 L 291 195 L 290 194 L 288 194 L 287 195 L 288 196 L 288 198 L 290 200 L 292 200 L 293 201 L 296 201 L 297 200 L 298 200 L 300 198 L 300 196 L 301 195 L 301 193 L 300 192 L 300 191 L 298 189 L 296 189 L 295 188 L 293 188 L 291 186 L 291 184 L 292 183 L 295 183 L 297 185 L 297 186 L 300 186 L 300 183 L 298 181 L 297 181 L 296 180 Z M 565 179 L 560 179 L 559 180 L 556 181 L 553 184 L 553 185 L 550 190 L 550 192 L 549 193 L 549 197 L 548 198 L 548 220 L 547 221 L 547 225 L 546 226 L 546 230 L 545 231 L 545 233 L 543 236 L 543 238 L 542 239 L 542 240 L 541 241 L 540 244 L 538 246 L 537 249 L 533 253 L 533 254 L 532 255 L 534 255 L 535 254 L 537 254 L 538 253 L 539 253 L 541 251 L 542 251 L 544 249 L 545 249 L 548 246 L 549 246 L 561 234 L 561 233 L 564 230 L 564 229 L 566 227 L 566 226 L 567 225 L 567 224 L 568 223 L 568 222 L 571 217 L 571 215 L 572 214 L 572 212 L 573 211 L 573 198 L 572 197 L 572 194 L 571 193 L 571 191 L 570 190 L 570 187 L 569 186 L 569 183 L 568 182 L 568 181 Z M 649 128 L 648 128 L 647 127 L 644 127 L 643 126 L 636 126 L 635 127 L 629 127 L 628 128 L 626 128 L 625 129 L 623 129 L 622 130 L 620 130 L 619 131 L 616 132 L 614 134 L 613 134 L 611 136 L 610 136 L 608 138 L 607 138 L 603 142 L 602 142 L 596 148 L 596 149 L 591 154 L 591 155 L 587 160 L 587 161 L 584 166 L 584 168 L 582 171 L 582 173 L 581 174 L 581 176 L 580 177 L 580 180 L 579 181 L 579 184 L 578 185 L 578 188 L 577 189 L 577 194 L 576 195 L 576 210 L 577 210 L 577 209 L 580 204 L 581 205 L 581 207 L 580 208 L 580 209 L 579 210 L 579 212 L 577 215 L 577 218 L 576 219 L 576 222 L 575 223 L 575 227 L 574 228 L 574 231 L 573 232 L 573 234 L 572 235 L 572 239 L 574 236 L 575 237 L 577 237 L 578 236 L 583 236 L 584 235 L 589 235 L 590 236 L 593 236 L 594 237 L 596 237 L 597 238 L 599 238 L 600 239 L 601 239 L 602 240 L 604 240 L 605 241 L 608 241 L 609 242 L 614 242 L 615 241 L 617 241 L 619 239 L 620 239 L 621 238 L 621 237 L 622 236 L 622 231 L 621 230 L 620 227 L 618 225 L 617 225 L 614 223 L 612 223 L 611 222 L 600 222 L 599 223 L 596 223 L 595 224 L 593 224 L 590 226 L 588 226 L 587 227 L 586 227 L 584 229 L 581 230 L 577 234 L 576 233 L 576 232 L 577 231 L 578 228 L 580 226 L 580 225 L 582 223 L 582 222 L 593 211 L 594 211 L 597 208 L 598 208 L 603 204 L 606 203 L 608 201 L 609 201 L 611 199 L 612 199 L 618 193 L 618 192 L 620 189 L 620 187 L 621 186 L 621 182 L 620 181 L 620 179 L 617 176 L 611 176 L 610 177 L 609 177 L 608 178 L 607 178 L 606 179 L 603 180 L 601 182 L 600 182 L 598 184 L 597 184 L 590 191 L 590 192 L 586 196 L 586 197 L 584 199 L 584 200 L 583 201 L 582 200 L 582 198 L 584 196 L 584 195 L 585 194 L 585 193 L 586 192 L 586 191 L 587 190 L 588 187 L 590 185 L 590 184 L 593 181 L 593 180 L 605 168 L 606 168 L 609 165 L 610 165 L 612 163 L 613 163 L 615 161 L 616 161 L 618 159 L 619 159 L 622 157 L 624 157 L 629 154 L 631 154 L 632 153 L 634 153 L 635 152 L 637 152 L 638 151 L 641 151 L 642 150 L 645 150 L 646 149 L 647 149 L 652 144 L 652 143 L 653 142 L 653 139 L 654 138 L 654 135 L 653 134 L 653 132 Z M 574 236 L 575 235 L 576 236 L 575 237 Z M 575 234 L 576 233 L 577 234 L 576 235 Z M 580 203 L 581 202 L 582 203 L 582 204 L 581 205 L 580 204 Z M 581 201 L 582 200 L 583 201 L 583 202 L 582 203 L 581 202 Z M 365 38 L 365 41 L 366 42 L 366 48 L 365 49 L 365 51 L 364 52 L 364 54 L 363 55 L 363 56 L 362 57 L 361 60 L 359 62 L 359 63 L 357 65 L 357 66 L 353 71 L 352 74 L 350 76 L 350 77 L 348 80 L 348 82 L 346 85 L 346 89 L 345 90 L 345 97 L 346 98 L 346 101 L 347 102 L 347 104 L 348 105 L 349 108 L 351 110 L 351 111 L 357 117 L 358 117 L 360 119 L 362 119 L 363 120 L 362 119 L 362 118 L 360 116 L 360 115 L 358 113 L 358 111 L 357 110 L 357 99 L 358 98 L 358 96 L 359 95 L 359 94 L 360 93 L 360 92 L 361 91 L 362 88 L 364 86 L 364 85 L 365 84 L 366 81 L 368 79 L 368 78 L 369 77 L 370 78 L 370 84 L 371 85 L 371 87 L 372 88 L 372 89 L 374 91 L 374 92 L 377 95 L 377 96 L 379 98 L 379 99 L 381 102 L 381 104 L 382 105 L 382 108 L 381 109 L 381 112 L 378 117 L 378 119 L 380 117 L 381 117 L 386 112 L 386 111 L 388 109 L 388 108 L 390 106 L 390 105 L 391 104 L 391 102 L 392 101 L 392 98 L 393 97 L 393 86 L 392 85 L 392 81 L 391 80 L 391 77 L 389 74 L 389 72 L 388 71 L 388 70 L 387 69 L 387 68 L 386 67 L 386 66 L 385 65 L 385 64 L 384 63 L 384 62 L 383 61 L 383 60 L 382 59 L 381 56 L 378 53 L 378 52 L 376 50 L 376 49 L 373 46 L 373 45 L 366 38 Z M 235 76 L 234 79 L 232 81 L 232 82 L 231 83 L 231 84 L 230 85 L 230 86 L 229 87 L 229 88 L 228 89 L 228 90 L 227 91 L 227 92 L 224 97 L 224 99 L 223 100 L 223 102 L 222 103 L 222 105 L 220 108 L 220 110 L 219 111 L 219 113 L 218 114 L 218 117 L 217 118 L 217 121 L 216 122 L 216 125 L 215 126 L 215 130 L 214 131 L 214 136 L 213 137 L 213 143 L 212 144 L 212 174 L 213 175 L 213 183 L 214 184 L 214 189 L 215 190 L 215 193 L 216 194 L 216 197 L 217 198 L 217 201 L 218 202 L 218 205 L 220 208 L 220 211 L 222 214 L 222 216 L 224 219 L 224 221 L 225 222 L 225 223 L 226 224 L 226 225 L 227 226 L 227 227 L 228 228 L 228 229 L 229 230 L 229 231 L 230 232 L 230 233 L 231 234 L 232 237 L 234 239 L 235 242 L 238 245 L 238 246 L 240 248 L 240 249 L 241 250 L 241 254 L 240 255 L 240 258 L 239 259 L 239 262 L 238 263 L 238 266 L 237 267 L 237 269 L 239 269 L 240 268 L 242 268 L 243 267 L 244 267 L 247 265 L 249 265 L 252 263 L 254 263 L 255 262 L 257 262 L 258 261 L 260 261 L 261 260 L 263 260 L 264 259 L 266 259 L 267 258 L 269 258 L 270 257 L 273 257 L 274 256 L 277 256 L 278 255 L 281 255 L 282 254 L 286 254 L 287 253 L 291 253 L 292 252 L 297 252 L 298 251 L 304 251 L 305 250 L 315 250 L 316 249 L 332 249 L 333 250 L 342 250 L 343 251 L 348 251 L 349 252 L 353 252 L 354 253 L 358 253 L 359 254 L 363 254 L 364 255 L 367 255 L 368 256 L 370 256 L 371 257 L 372 257 L 373 258 L 375 258 L 376 259 L 379 259 L 380 260 L 383 260 L 386 258 L 388 258 L 389 257 L 391 257 L 392 256 L 394 256 L 395 255 L 397 255 L 398 254 L 400 254 L 401 253 L 403 253 L 404 252 L 407 252 L 408 251 L 410 251 L 411 250 L 416 250 L 417 249 L 421 249 L 422 248 L 429 248 L 430 247 L 468 247 L 469 248 L 478 248 L 479 249 L 485 249 L 486 250 L 492 250 L 493 251 L 497 251 L 498 252 L 501 252 L 502 253 L 503 253 L 504 254 L 502 256 L 501 256 L 496 260 L 495 260 L 494 261 L 493 261 L 491 263 L 490 263 L 490 264 L 500 264 L 501 263 L 507 263 L 508 262 L 511 262 L 512 261 L 514 261 L 515 260 L 517 260 L 518 259 L 519 259 L 520 258 L 523 257 L 525 255 L 526 255 L 531 250 L 531 249 L 533 247 L 533 246 L 536 241 L 536 239 L 537 238 L 537 236 L 538 235 L 538 230 L 539 229 L 539 225 L 538 224 L 538 221 L 537 220 L 537 218 L 534 215 L 533 215 L 532 214 L 523 214 L 519 218 L 519 219 L 517 222 L 517 224 L 516 225 L 516 228 L 515 229 L 515 231 L 514 232 L 514 236 L 513 237 L 513 239 L 511 241 L 510 240 L 510 239 L 509 238 L 509 236 L 508 235 L 511 230 L 511 228 L 514 223 L 514 221 L 517 216 L 517 214 L 519 211 L 519 209 L 520 208 L 520 206 L 521 205 L 521 202 L 522 201 L 522 198 L 523 197 L 523 194 L 524 193 L 524 190 L 525 189 L 525 184 L 526 183 L 526 177 L 527 176 L 527 145 L 526 144 L 526 138 L 525 137 L 525 132 L 524 131 L 524 128 L 523 127 L 523 123 L 522 122 L 522 120 L 521 119 L 521 116 L 520 115 L 520 113 L 519 112 L 519 109 L 517 106 L 517 104 L 515 101 L 515 99 L 514 98 L 514 97 L 511 92 L 511 90 L 509 88 L 509 87 L 508 86 L 508 85 L 507 84 L 506 81 L 504 79 L 503 76 L 501 74 L 501 73 L 499 71 L 499 70 L 496 67 L 496 66 L 494 64 L 494 63 L 489 58 L 489 57 L 472 40 L 471 40 L 462 32 L 461 32 L 459 30 L 458 30 L 453 26 L 450 25 L 448 23 L 447 23 L 446 22 L 445 22 L 444 21 L 441 20 L 439 18 L 438 18 L 435 16 L 433 16 L 428 13 L 426 13 L 425 12 L 423 12 L 420 10 L 418 10 L 417 9 L 415 9 L 414 8 L 411 8 L 410 7 L 407 7 L 406 6 L 403 6 L 402 5 L 397 5 L 396 4 L 391 4 L 390 3 L 380 3 L 379 2 L 358 2 L 357 3 L 348 3 L 347 4 L 341 4 L 340 5 L 336 5 L 335 6 L 331 6 L 330 7 L 327 7 L 326 8 L 324 8 L 323 9 L 320 9 L 317 11 L 315 11 L 314 12 L 312 12 L 311 13 L 309 13 L 308 14 L 307 14 L 306 15 L 305 15 L 300 18 L 298 18 L 296 20 L 295 20 L 294 21 L 293 21 L 292 22 L 289 23 L 287 25 L 284 26 L 282 28 L 281 28 L 279 30 L 278 30 L 275 33 L 274 33 L 270 37 L 269 37 L 264 42 L 263 42 L 256 49 L 256 50 L 247 59 L 247 60 L 244 63 L 244 64 L 242 66 L 242 67 L 239 70 L 239 71 Z M 387 254 L 388 253 L 389 254 L 388 255 Z M 389 253 L 390 252 L 391 252 L 392 253 L 391 254 L 390 254 Z M 371 253 L 372 252 L 373 252 L 374 253 L 373 254 L 372 254 Z M 392 252 L 393 251 L 394 251 L 395 252 L 394 253 L 393 253 Z M 368 252 L 369 251 L 371 251 L 372 252 L 371 253 L 369 253 Z M 394 251 L 395 250 L 397 250 L 398 251 L 397 252 L 395 252 Z M 385 251 L 386 250 L 387 251 L 386 252 Z M 365 251 L 366 250 L 368 250 L 369 251 L 368 252 L 366 252 Z M 264 251 L 265 250 L 266 251 L 265 252 Z M 397 250 L 398 249 L 400 249 L 401 250 L 400 251 L 398 251 Z M 387 250 L 388 249 L 389 250 L 388 251 Z M 280 250 L 281 249 L 283 249 L 284 250 L 283 251 L 281 251 Z M 266 250 L 267 249 L 268 249 L 269 250 L 268 251 L 267 251 Z M 389 249 L 390 248 L 391 248 L 392 249 L 391 250 L 390 250 Z M 285 249 L 286 248 L 289 248 L 290 249 L 289 250 L 286 250 Z M 269 249 L 270 248 L 271 248 L 272 249 L 271 250 L 270 250 Z M 257 249 L 258 248 L 259 249 L 258 250 Z M 391 248 L 392 247 L 393 247 L 394 248 L 393 249 L 392 249 Z M 272 248 L 273 247 L 274 247 L 275 248 L 274 249 L 273 249 Z M 259 248 L 260 247 L 261 247 L 262 248 L 261 249 L 260 249 Z M 384 247 L 385 246 L 386 247 L 385 248 Z M 365 247 L 366 246 L 367 247 L 366 248 Z M 275 247 L 276 246 L 278 246 L 279 247 L 278 248 L 276 248 Z M 262 247 L 263 246 L 264 246 L 265 247 L 264 248 L 263 248 Z M 477 246 L 478 245 L 482 245 L 483 246 L 482 247 L 478 247 Z M 385 246 L 386 245 L 387 245 L 388 246 L 387 247 L 386 247 Z M 362 246 L 363 245 L 364 245 L 365 246 L 364 247 L 363 247 Z M 278 246 L 279 245 L 282 245 L 283 246 L 282 247 L 279 247 Z M 264 246 L 265 245 L 267 245 L 268 246 L 267 247 L 265 247 Z M 253 246 L 254 245 L 255 246 L 254 247 Z M 468 245 L 469 244 L 476 244 L 477 245 L 476 246 L 469 246 Z M 289 248 L 290 247 L 294 247 L 295 246 L 301 246 L 302 245 L 309 245 L 310 244 L 341 244 L 342 245 L 348 245 L 349 246 L 353 246 L 354 247 L 358 247 L 359 248 L 362 248 L 363 249 L 365 249 L 366 250 L 365 251 L 362 251 L 361 250 L 358 250 L 357 249 L 352 249 L 351 248 L 346 248 L 345 247 L 336 247 L 335 246 L 314 246 L 313 247 L 303 247 L 302 248 L 296 248 L 295 249 L 290 249 Z M 282 245 L 283 244 L 286 244 L 287 245 L 286 246 L 283 246 Z M 267 245 L 268 244 L 270 244 L 271 245 L 270 246 L 268 246 Z M 255 245 L 256 244 L 257 244 L 258 245 L 257 246 L 256 246 Z M 270 244 L 271 243 L 273 243 L 274 244 L 273 245 L 271 245 Z M 257 244 L 258 243 L 259 243 L 260 244 L 259 245 L 258 245 Z M 400 249 L 401 248 L 403 248 L 404 247 L 407 247 L 408 246 L 412 246 L 413 245 L 416 245 L 417 244 L 423 244 L 424 243 L 431 243 L 432 242 L 459 242 L 460 243 L 468 243 L 469 244 L 468 245 L 456 245 L 455 244 L 440 244 L 439 245 L 429 245 L 428 246 L 420 246 L 419 247 L 414 247 L 413 248 L 409 248 L 408 249 L 405 249 L 404 250 L 401 250 Z M 383 243 L 384 242 L 385 243 L 384 244 Z M 365 243 L 366 242 L 367 242 L 368 243 L 367 244 L 366 244 Z M 273 243 L 274 242 L 276 242 L 277 243 L 276 244 L 274 244 Z M 384 242 L 385 241 L 386 242 L 385 243 Z M 363 242 L 364 241 L 365 241 L 366 242 L 365 243 L 364 243 Z M 276 242 L 277 241 L 280 241 L 281 242 L 280 243 L 277 243 Z M 259 243 L 262 241 L 264 241 L 265 242 L 262 244 L 260 244 Z M 386 241 L 387 240 L 388 241 L 387 242 Z M 359 241 L 360 240 L 362 240 L 363 241 L 362 242 L 360 242 Z M 387 240 L 388 239 L 389 239 L 390 240 L 389 241 L 388 241 Z M 368 240 L 369 239 L 370 240 L 369 241 Z M 356 240 L 357 239 L 359 239 L 360 240 L 359 241 L 357 241 Z M 286 244 L 287 243 L 290 243 L 291 242 L 295 242 L 296 241 L 301 241 L 302 240 L 308 240 L 309 239 L 339 239 L 340 240 L 346 240 L 347 241 L 351 241 L 352 242 L 355 242 L 356 243 L 359 243 L 360 244 L 362 244 L 363 245 L 362 246 L 359 246 L 358 245 L 355 245 L 354 244 L 350 244 L 349 243 L 345 243 L 344 242 L 335 242 L 334 241 L 313 241 L 312 242 L 304 242 L 303 243 L 297 243 L 296 244 L 292 244 L 291 245 L 287 245 Z M 280 241 L 281 240 L 283 240 L 284 239 L 288 239 L 289 240 L 288 241 L 285 241 L 284 242 L 281 242 Z M 389 239 L 390 238 L 391 238 L 392 239 L 391 240 L 390 240 Z M 366 239 L 367 238 L 368 239 L 367 240 Z M 351 239 L 352 238 L 356 238 L 357 239 L 356 240 L 352 240 Z M 391 238 L 392 237 L 393 237 L 394 238 L 393 239 L 392 239 Z M 363 238 L 364 237 L 365 237 L 366 238 L 365 239 L 364 239 Z M 288 239 L 289 238 L 292 238 L 293 237 L 298 237 L 299 238 L 298 239 L 294 239 L 293 240 L 289 240 Z M 393 247 L 394 246 L 395 246 L 396 245 L 398 245 L 401 243 L 403 243 L 404 242 L 406 242 L 407 241 L 410 241 L 411 240 L 414 240 L 415 239 L 420 239 L 421 238 L 427 238 L 428 237 L 437 237 L 438 236 L 448 236 L 449 237 L 463 237 L 464 238 L 471 238 L 472 239 L 478 239 L 479 240 L 483 240 L 484 241 L 489 241 L 490 242 L 493 242 L 494 243 L 497 243 L 498 244 L 501 244 L 502 245 L 505 245 L 506 246 L 508 246 L 511 248 L 510 249 L 508 249 L 507 248 L 504 248 L 503 247 L 499 247 L 498 246 L 494 246 L 493 245 L 490 245 L 489 244 L 485 244 L 484 243 L 479 243 L 478 242 L 472 242 L 471 241 L 463 241 L 462 240 L 451 240 L 450 239 L 439 239 L 438 240 L 427 240 L 426 241 L 420 241 L 419 242 L 415 242 L 414 243 L 410 243 L 409 244 L 406 244 L 405 245 L 403 245 L 402 246 L 400 246 L 399 247 L 397 247 L 396 248 L 394 248 Z M 393 237 L 394 236 L 395 236 L 396 237 L 395 238 L 394 238 Z M 360 237 L 361 236 L 362 236 L 363 237 L 362 238 L 361 238 Z M 395 236 L 396 235 L 397 235 L 398 236 L 397 237 L 396 237 Z M 356 236 L 357 235 L 359 235 L 360 236 L 359 237 L 357 237 Z M 352 235 L 353 234 L 356 234 L 357 235 L 356 236 L 353 236 Z M 298 237 L 299 236 L 305 236 L 306 235 L 316 235 L 317 234 L 331 234 L 332 235 L 341 235 L 342 236 L 347 236 L 348 237 L 351 237 L 352 238 L 351 239 L 347 239 L 346 238 L 340 238 L 339 237 L 329 237 L 328 236 L 319 236 L 318 237 L 307 237 L 306 238 L 299 238 Z M 397 235 L 400 233 L 402 233 L 403 234 L 400 236 L 398 236 Z M 348 234 L 349 233 L 352 233 L 353 234 L 352 235 L 349 235 Z M 387 245 L 389 243 L 390 243 L 395 240 L 397 240 L 402 237 L 404 237 L 405 236 L 407 236 L 408 235 L 410 235 L 411 234 L 415 234 L 416 233 L 420 233 L 421 232 L 426 232 L 427 231 L 436 231 L 437 230 L 448 230 L 449 231 L 461 231 L 462 232 L 468 232 L 469 233 L 474 233 L 475 234 L 480 234 L 481 235 L 485 235 L 486 236 L 490 236 L 491 237 L 494 237 L 495 238 L 498 238 L 499 239 L 502 239 L 503 240 L 505 240 L 507 242 L 506 243 L 503 243 L 502 242 L 499 242 L 498 241 L 496 241 L 495 240 L 492 240 L 491 239 L 487 239 L 486 238 L 481 238 L 480 237 L 475 237 L 474 236 L 468 236 L 467 235 L 457 235 L 456 234 L 432 234 L 431 235 L 424 235 L 423 236 L 418 236 L 417 237 L 413 237 L 412 238 L 409 238 L 408 239 L 405 239 L 404 240 L 402 240 L 401 241 L 399 241 L 398 242 L 397 242 L 396 243 L 394 243 L 389 246 L 388 246 Z M 349 233 L 348 234 L 343 234 L 342 233 L 332 233 L 331 232 L 316 232 L 315 233 L 304 233 L 303 234 L 297 234 L 296 235 L 291 235 L 290 236 L 286 236 L 285 237 L 282 237 L 281 238 L 278 238 L 277 239 L 275 239 L 274 240 L 272 240 L 271 241 L 268 241 L 267 242 L 265 242 L 264 241 L 267 239 L 269 239 L 270 238 L 272 238 L 273 237 L 276 237 L 277 236 L 280 236 L 281 235 L 284 235 L 285 234 L 288 234 L 289 233 L 294 233 L 295 232 L 300 232 L 301 231 L 309 231 L 310 230 L 335 230 L 336 231 L 343 231 L 344 232 L 348 232 Z M 402 233 L 405 231 L 408 231 L 409 230 L 411 230 L 412 229 L 415 229 L 416 228 L 420 228 L 421 227 L 426 227 L 427 226 L 439 226 L 440 225 L 441 226 L 442 225 L 443 226 L 459 226 L 460 227 L 468 227 L 469 228 L 475 228 L 476 229 L 481 229 L 482 230 L 486 230 L 487 231 L 491 231 L 492 232 L 496 232 L 497 233 L 500 233 L 501 234 L 502 234 L 504 236 L 503 237 L 501 237 L 500 236 L 497 236 L 496 235 L 493 235 L 492 234 L 488 234 L 487 233 L 483 233 L 482 232 L 477 232 L 476 231 L 471 231 L 470 230 L 464 230 L 463 229 L 454 229 L 453 228 L 432 228 L 431 229 L 424 229 L 423 230 L 419 230 L 418 231 L 414 231 L 413 232 L 410 232 L 409 233 L 406 233 L 405 234 L 403 234 Z M 367 146 L 367 147 L 369 149 L 369 150 L 370 151 L 370 169 L 371 170 L 371 182 L 372 183 L 372 199 L 373 200 L 373 213 L 374 214 L 374 227 L 375 228 L 375 238 L 374 239 L 373 238 L 372 238 L 367 235 L 365 235 L 362 233 L 360 233 L 359 232 L 356 232 L 355 231 L 352 231 L 351 230 L 348 230 L 347 229 L 341 229 L 340 228 L 328 228 L 327 227 L 319 227 L 318 228 L 305 228 L 304 229 L 296 229 L 295 230 L 291 230 L 290 231 L 286 231 L 285 232 L 281 232 L 280 233 L 278 233 L 277 234 L 274 234 L 273 235 L 271 235 L 270 236 L 268 236 L 267 237 L 265 237 L 264 238 L 262 238 L 261 239 L 260 239 L 259 240 L 257 240 L 252 243 L 251 243 L 250 242 L 250 240 L 251 239 L 251 238 L 252 237 L 252 235 L 254 232 L 254 230 L 255 229 L 255 227 L 256 226 L 256 224 L 257 223 L 257 221 L 259 218 L 259 216 L 260 215 L 260 214 L 261 213 L 261 211 L 263 208 L 263 206 L 264 205 L 264 203 L 265 202 L 265 200 L 267 197 L 267 195 L 269 192 L 269 190 L 270 189 L 270 188 L 271 187 L 271 185 L 273 182 L 273 180 L 274 179 L 274 177 L 276 174 L 276 172 L 277 171 L 277 169 L 278 168 L 278 167 L 279 166 L 279 164 L 281 161 L 281 159 L 282 158 L 282 156 L 284 153 L 284 151 L 286 148 L 286 146 L 287 145 L 288 142 L 290 140 L 291 140 L 292 139 L 293 139 L 298 136 L 300 136 L 301 135 L 304 135 L 305 134 L 308 134 L 309 133 L 313 133 L 314 132 L 321 132 L 322 131 L 335 131 L 336 132 L 341 132 L 342 133 L 345 133 L 346 134 L 349 134 L 350 135 L 351 135 L 352 136 L 353 136 L 354 137 L 357 138 L 360 141 L 361 141 L 365 145 L 366 145 Z M 373 150 L 376 147 L 376 146 L 380 142 L 381 142 L 384 139 L 385 139 L 387 137 L 388 137 L 389 136 L 390 136 L 395 133 L 397 133 L 398 132 L 401 132 L 402 131 L 407 131 L 408 130 L 421 130 L 422 131 L 430 131 L 431 132 L 435 132 L 436 133 L 439 133 L 440 134 L 443 134 L 444 135 L 446 135 L 447 136 L 448 136 L 452 141 L 452 142 L 453 143 L 453 144 L 454 145 L 455 148 L 457 150 L 457 151 L 458 152 L 458 153 L 459 154 L 460 157 L 462 159 L 462 160 L 463 161 L 463 162 L 464 163 L 465 166 L 467 168 L 467 169 L 468 170 L 468 171 L 469 172 L 469 173 L 470 174 L 470 175 L 471 176 L 471 177 L 472 178 L 473 181 L 475 183 L 476 186 L 478 188 L 478 189 L 479 190 L 479 191 L 480 192 L 480 193 L 481 194 L 481 195 L 482 196 L 482 197 L 483 198 L 484 201 L 486 203 L 486 204 L 487 205 L 487 206 L 488 207 L 489 210 L 491 212 L 491 213 L 492 214 L 492 215 L 493 216 L 494 219 L 496 221 L 496 222 L 497 223 L 497 224 L 498 225 L 499 228 L 501 230 L 500 231 L 499 231 L 498 230 L 495 230 L 494 229 L 489 229 L 488 228 L 484 228 L 483 227 L 479 227 L 478 226 L 472 226 L 471 225 L 464 225 L 463 224 L 453 224 L 452 223 L 434 223 L 433 224 L 424 224 L 423 225 L 418 225 L 417 226 L 414 226 L 413 227 L 410 227 L 409 228 L 406 228 L 405 229 L 403 229 L 400 231 L 398 231 L 397 232 L 395 232 L 393 234 L 392 234 L 391 235 L 388 236 L 386 238 L 383 239 L 381 241 L 380 240 L 380 238 L 379 237 L 379 227 L 378 226 L 378 215 L 377 214 L 377 202 L 376 201 L 376 188 L 375 187 L 375 174 L 374 173 L 374 161 L 373 160 Z M 359 28 L 378 28 L 379 29 L 383 29 L 384 30 L 386 30 L 387 31 L 389 31 L 390 32 L 391 32 L 392 33 L 395 34 L 397 36 L 398 36 L 401 39 L 402 39 L 407 44 L 407 45 L 411 49 L 412 52 L 414 54 L 414 55 L 417 60 L 417 63 L 418 64 L 418 67 L 419 68 L 419 71 L 420 72 L 420 84 L 419 85 L 419 90 L 418 91 L 418 94 L 416 97 L 416 99 L 415 100 L 415 101 L 414 102 L 413 105 L 411 107 L 411 108 L 408 111 L 408 112 L 402 118 L 401 118 L 398 121 L 397 121 L 395 123 L 394 123 L 389 126 L 387 126 L 384 128 L 381 128 L 380 129 L 374 129 L 373 130 L 365 130 L 364 129 L 359 129 L 358 128 L 355 128 L 354 127 L 352 127 L 351 126 L 350 126 L 349 125 L 348 125 L 347 124 L 344 123 L 342 121 L 341 121 L 339 119 L 338 119 L 329 110 L 329 109 L 325 104 L 325 103 L 322 98 L 322 96 L 321 95 L 321 93 L 320 92 L 320 89 L 319 88 L 319 69 L 320 68 L 320 64 L 321 63 L 321 61 L 322 60 L 322 59 L 323 58 L 323 57 L 324 56 L 325 53 L 327 51 L 327 50 L 329 48 L 329 47 L 339 37 L 340 37 L 342 35 L 343 35 L 344 34 L 345 34 L 346 33 L 347 33 L 352 30 L 354 30 L 355 29 L 358 29 Z"/>
</svg>
