<svg xmlns="http://www.w3.org/2000/svg" width="638" height="869" viewBox="0 0 638 869">
<path fill="#000000" fill-rule="evenodd" d="M 271 809 L 271 810 L 270 811 L 270 816 L 269 817 L 269 826 L 268 827 L 268 832 L 267 833 L 267 845 L 266 846 L 266 850 L 265 851 L 265 855 L 264 856 L 264 859 L 265 860 L 265 861 L 266 861 L 267 862 L 269 862 L 270 863 L 275 863 L 276 862 L 276 861 L 277 860 L 277 853 L 278 852 L 278 846 L 281 843 L 282 843 L 287 848 L 287 850 L 288 851 L 288 852 L 289 853 L 289 854 L 290 855 L 290 856 L 291 857 L 291 858 L 292 859 L 293 862 L 295 864 L 295 865 L 302 865 L 303 866 L 307 866 L 308 865 L 309 865 L 310 862 L 309 861 L 308 858 L 306 856 L 306 855 L 303 852 L 303 851 L 299 846 L 299 845 L 298 844 L 297 841 L 295 839 L 295 838 L 294 837 L 294 835 L 296 833 L 297 833 L 297 832 L 298 831 L 299 831 L 308 822 L 309 822 L 311 820 L 312 820 L 312 819 L 314 817 L 314 814 L 311 812 L 310 813 L 307 813 L 306 812 L 301 812 L 284 829 L 283 829 L 281 831 L 280 830 L 280 822 L 281 821 L 281 811 L 279 809 Z M 381 808 L 374 808 L 373 809 L 371 809 L 370 808 L 369 808 L 368 809 L 361 809 L 360 810 L 358 810 L 357 809 L 355 809 L 354 810 L 347 810 L 346 811 L 342 811 L 340 814 L 340 819 L 343 822 L 347 822 L 348 821 L 353 821 L 354 820 L 357 823 L 357 830 L 358 831 L 358 846 L 359 847 L 359 848 L 358 849 L 358 853 L 359 854 L 359 861 L 362 863 L 363 863 L 364 862 L 369 862 L 370 861 L 371 861 L 371 859 L 372 858 L 372 857 L 371 856 L 371 843 L 370 842 L 370 835 L 369 834 L 369 824 L 368 823 L 368 822 L 371 819 L 375 819 L 376 818 L 381 818 L 382 817 L 382 816 L 383 815 L 383 811 Z M 428 804 L 426 804 L 425 803 L 423 803 L 422 802 L 411 802 L 410 803 L 408 803 L 407 804 L 403 804 L 402 805 L 398 805 L 397 806 L 393 806 L 390 808 L 390 814 L 391 815 L 391 819 L 392 820 L 392 824 L 393 825 L 393 834 L 394 835 L 394 840 L 395 841 L 395 848 L 396 849 L 396 853 L 395 854 L 396 855 L 396 856 L 398 858 L 403 858 L 404 857 L 407 857 L 408 856 L 408 854 L 409 853 L 409 851 L 408 850 L 408 847 L 406 844 L 406 837 L 407 836 L 410 836 L 411 835 L 415 835 L 416 836 L 416 837 L 421 842 L 421 843 L 423 845 L 424 848 L 429 853 L 432 853 L 433 852 L 438 852 L 440 850 L 440 849 L 441 848 L 440 847 L 440 846 L 435 842 L 435 841 L 428 834 L 428 833 L 427 832 L 427 831 L 431 827 L 431 826 L 433 824 L 433 823 L 434 822 L 434 813 L 433 812 L 433 809 Z M 423 815 L 423 818 L 424 819 L 423 820 L 423 821 L 418 824 L 413 824 L 412 825 L 408 825 L 407 826 L 406 826 L 403 823 L 403 820 L 402 819 L 402 816 L 405 813 L 414 813 L 415 812 L 420 812 Z M 221 799 L 218 802 L 218 808 L 217 809 L 217 811 L 216 812 L 216 816 L 215 817 L 215 822 L 214 823 L 214 826 L 213 827 L 213 829 L 212 830 L 212 832 L 211 833 L 211 838 L 210 839 L 210 842 L 209 843 L 209 845 L 208 846 L 208 850 L 211 852 L 214 852 L 215 853 L 219 853 L 220 854 L 223 854 L 224 855 L 227 855 L 228 856 L 232 856 L 233 857 L 236 857 L 237 858 L 240 858 L 241 859 L 246 859 L 247 860 L 249 860 L 252 857 L 252 850 L 251 849 L 250 849 L 249 848 L 244 848 L 243 847 L 240 847 L 239 846 L 235 846 L 234 845 L 231 845 L 230 844 L 226 844 L 225 843 L 223 843 L 222 842 L 222 841 L 223 840 L 223 836 L 224 835 L 224 834 L 226 832 L 229 832 L 230 833 L 233 833 L 234 834 L 238 834 L 239 835 L 242 835 L 243 836 L 247 836 L 249 834 L 249 827 L 248 826 L 245 826 L 244 825 L 241 825 L 240 824 L 235 824 L 234 823 L 231 823 L 230 822 L 228 822 L 227 821 L 227 815 L 229 812 L 232 811 L 235 813 L 240 813 L 241 814 L 246 814 L 247 815 L 249 815 L 250 816 L 254 816 L 255 817 L 256 816 L 258 816 L 259 815 L 260 815 L 260 808 L 257 806 L 253 806 L 252 805 L 248 805 L 247 804 L 243 804 L 242 803 L 239 803 L 238 802 L 236 802 L 235 801 L 231 801 L 230 800 L 229 801 L 228 800 L 223 800 L 222 799 Z M 478 789 L 474 789 L 473 790 L 471 790 L 468 792 L 468 796 L 470 799 L 470 802 L 471 803 L 471 806 L 472 807 L 472 811 L 473 812 L 473 814 L 474 815 L 474 817 L 475 818 L 475 827 L 474 828 L 474 829 L 471 832 L 470 832 L 469 833 L 466 833 L 465 834 L 463 834 L 462 833 L 461 833 L 458 830 L 458 829 L 456 827 L 456 824 L 455 823 L 455 819 L 454 818 L 454 813 L 453 812 L 453 810 L 452 809 L 452 805 L 451 804 L 451 801 L 450 800 L 450 798 L 448 796 L 444 796 L 443 797 L 441 797 L 439 799 L 439 804 L 440 805 L 440 808 L 441 809 L 441 811 L 442 812 L 442 816 L 443 817 L 443 820 L 444 821 L 444 824 L 445 825 L 445 829 L 446 830 L 446 833 L 447 834 L 448 837 L 450 839 L 450 840 L 451 841 L 452 841 L 454 843 L 455 843 L 456 844 L 458 844 L 461 846 L 465 846 L 466 845 L 470 845 L 471 844 L 475 844 L 478 841 L 479 841 L 481 839 L 482 839 L 486 833 L 486 829 L 487 828 L 487 822 L 486 821 L 486 819 L 485 818 L 485 815 L 484 814 L 484 809 L 482 806 L 482 800 L 481 799 L 481 795 L 480 794 L 480 792 Z M 171 786 L 170 787 L 169 787 L 169 789 L 168 790 L 168 794 L 167 795 L 167 797 L 166 798 L 166 800 L 164 803 L 164 805 L 163 806 L 163 808 L 162 809 L 162 812 L 161 813 L 161 815 L 160 816 L 160 819 L 158 822 L 158 824 L 156 827 L 156 829 L 155 830 L 155 833 L 154 834 L 156 836 L 156 837 L 157 837 L 158 838 L 160 838 L 161 839 L 164 839 L 165 840 L 168 840 L 169 841 L 171 841 L 172 842 L 174 842 L 177 844 L 181 844 L 184 846 L 187 846 L 190 848 L 196 848 L 198 845 L 198 838 L 197 837 L 196 837 L 195 836 L 192 836 L 191 835 L 188 835 L 187 834 L 184 834 L 183 833 L 181 833 L 180 832 L 178 832 L 177 831 L 174 831 L 173 830 L 172 830 L 170 828 L 170 825 L 171 824 L 171 822 L 174 819 L 177 819 L 178 820 L 180 820 L 181 821 L 183 821 L 184 822 L 186 822 L 187 823 L 189 823 L 190 824 L 195 824 L 197 822 L 197 820 L 198 819 L 198 817 L 197 816 L 197 815 L 196 815 L 193 813 L 190 813 L 189 812 L 186 812 L 185 811 L 183 811 L 182 810 L 180 810 L 179 809 L 177 809 L 176 808 L 176 805 L 177 804 L 177 801 L 179 799 L 184 799 L 185 800 L 187 800 L 188 801 L 191 801 L 192 802 L 195 802 L 198 804 L 200 804 L 201 805 L 204 805 L 205 806 L 206 806 L 207 805 L 208 805 L 210 802 L 210 797 L 207 795 L 204 795 L 203 794 L 201 794 L 200 793 L 198 793 L 197 792 L 194 792 L 193 791 L 191 791 L 190 790 L 187 790 L 186 789 L 184 789 L 183 788 L 179 788 L 178 787 L 176 787 L 175 786 Z M 518 773 L 517 773 L 514 775 L 512 775 L 511 776 L 509 776 L 508 777 L 506 777 L 505 778 L 503 778 L 502 779 L 500 779 L 499 780 L 497 780 L 496 781 L 495 781 L 494 782 L 492 782 L 489 784 L 486 784 L 485 785 L 484 785 L 484 786 L 483 787 L 484 788 L 484 792 L 486 794 L 491 794 L 492 793 L 493 793 L 494 792 L 496 792 L 497 791 L 500 793 L 500 795 L 501 796 L 501 798 L 502 799 L 502 802 L 503 803 L 503 805 L 504 806 L 504 808 L 506 811 L 506 816 L 508 819 L 508 823 L 509 824 L 509 826 L 511 829 L 517 829 L 518 828 L 519 828 L 521 826 L 521 820 L 520 819 L 520 816 L 517 811 L 517 809 L 516 808 L 516 806 L 514 803 L 514 800 L 513 799 L 513 798 L 512 797 L 512 795 L 511 794 L 512 793 L 510 791 L 510 788 L 512 786 L 513 786 L 514 785 L 516 785 L 517 784 L 519 784 L 522 782 L 522 778 L 521 777 L 521 776 Z M 119 771 L 118 772 L 117 772 L 112 777 L 112 778 L 111 779 L 111 785 L 110 786 L 110 787 L 111 788 L 111 790 L 112 791 L 112 793 L 119 799 L 120 799 L 125 802 L 127 802 L 130 805 L 131 805 L 132 806 L 134 806 L 135 807 L 135 808 L 137 810 L 137 812 L 134 815 L 127 815 L 126 814 L 124 814 L 121 812 L 119 812 L 115 808 L 115 807 L 114 807 L 113 806 L 113 805 L 112 804 L 107 804 L 105 806 L 104 806 L 103 807 L 103 809 L 102 810 L 102 811 L 103 812 L 104 815 L 109 820 L 110 820 L 112 822 L 113 822 L 114 823 L 116 823 L 117 824 L 119 824 L 122 826 L 126 826 L 127 827 L 129 827 L 130 828 L 133 828 L 134 827 L 140 827 L 141 826 L 143 826 L 144 825 L 145 825 L 146 824 L 146 823 L 149 820 L 149 818 L 150 817 L 150 814 L 151 813 L 151 811 L 150 810 L 150 807 L 149 806 L 149 805 L 148 804 L 147 801 L 145 799 L 142 798 L 140 796 L 138 796 L 136 794 L 133 793 L 131 791 L 130 791 L 129 790 L 128 790 L 126 788 L 125 788 L 124 787 L 124 784 L 126 782 L 134 782 L 135 783 L 137 783 L 139 785 L 142 786 L 149 793 L 151 793 L 152 792 L 155 791 L 155 790 L 156 789 L 156 784 L 155 783 L 155 782 L 152 779 L 151 779 L 147 775 L 146 775 L 143 773 L 140 773 L 137 771 L 135 771 L 134 770 L 132 770 L 131 769 L 126 769 L 125 770 L 122 770 L 121 771 Z M 561 755 L 560 755 L 559 756 L 556 756 L 553 759 L 553 763 L 554 764 L 554 765 L 556 768 L 556 770 L 559 775 L 559 776 L 558 777 L 557 777 L 555 779 L 554 779 L 553 780 L 551 780 L 550 781 L 549 781 L 546 783 L 544 783 L 543 784 L 541 782 L 541 781 L 538 776 L 538 774 L 537 773 L 537 771 L 536 770 L 536 769 L 535 769 L 534 768 L 529 768 L 528 769 L 527 769 L 525 772 L 525 774 L 528 779 L 528 781 L 530 784 L 530 786 L 531 787 L 531 788 L 533 791 L 533 793 L 535 796 L 535 798 L 536 799 L 536 801 L 537 802 L 537 805 L 540 810 L 540 812 L 541 813 L 541 815 L 543 817 L 544 817 L 545 818 L 546 818 L 549 816 L 551 816 L 553 813 L 553 812 L 552 811 L 552 808 L 551 807 L 551 806 L 549 804 L 549 802 L 548 801 L 548 799 L 547 798 L 547 796 L 546 795 L 552 791 L 554 791 L 555 790 L 557 790 L 558 789 L 559 789 L 561 787 L 562 787 L 564 789 L 564 792 L 566 794 L 566 796 L 568 799 L 568 802 L 569 803 L 569 804 L 572 807 L 573 807 L 574 806 L 576 806 L 581 801 L 581 799 L 580 798 L 580 796 L 579 795 L 579 794 L 577 791 L 577 789 L 575 787 L 575 786 L 574 785 L 574 783 L 572 780 L 572 778 L 571 777 L 571 773 L 569 771 L 569 769 L 568 768 L 568 766 L 566 764 L 566 763 L 565 762 L 565 760 L 564 759 L 564 757 Z M 606 340 L 604 338 L 603 338 L 602 337 L 600 337 L 599 336 L 594 336 L 593 335 L 590 335 L 585 332 L 580 332 L 579 331 L 576 331 L 575 330 L 572 330 L 571 329 L 568 329 L 567 328 L 566 329 L 558 329 L 557 328 L 552 328 L 551 329 L 548 329 L 547 328 L 546 328 L 545 329 L 541 329 L 540 328 L 539 329 L 535 329 L 534 330 L 532 330 L 531 331 L 525 331 L 522 333 L 515 333 L 514 334 L 510 334 L 509 335 L 500 335 L 499 336 L 494 336 L 493 335 L 474 335 L 473 334 L 456 334 L 455 333 L 454 333 L 453 334 L 441 334 L 440 335 L 439 335 L 438 334 L 429 334 L 428 335 L 421 335 L 420 336 L 419 336 L 418 335 L 413 335 L 412 336 L 408 336 L 405 338 L 403 338 L 402 339 L 400 339 L 398 341 L 397 341 L 395 343 L 394 343 L 390 347 L 390 351 L 389 352 L 389 355 L 388 356 L 388 358 L 389 359 L 389 364 L 390 365 L 390 379 L 391 380 L 391 385 L 392 386 L 392 387 L 391 388 L 391 399 L 392 400 L 392 401 L 391 402 L 392 403 L 392 415 L 393 416 L 393 424 L 394 425 L 394 431 L 393 432 L 393 440 L 394 441 L 394 442 L 393 443 L 393 445 L 394 446 L 394 458 L 395 459 L 395 469 L 394 470 L 394 472 L 395 473 L 395 486 L 394 487 L 394 488 L 395 489 L 395 511 L 394 512 L 394 513 L 395 514 L 395 525 L 396 526 L 396 529 L 397 530 L 397 533 L 398 534 L 399 537 L 401 537 L 404 539 L 408 539 L 409 540 L 418 540 L 419 539 L 421 539 L 422 538 L 437 538 L 438 537 L 439 538 L 448 538 L 449 539 L 450 539 L 451 538 L 457 538 L 458 537 L 459 537 L 460 538 L 462 538 L 463 537 L 464 538 L 491 538 L 492 539 L 495 539 L 496 540 L 501 540 L 502 541 L 503 540 L 539 540 L 540 539 L 548 539 L 549 538 L 556 538 L 557 537 L 569 537 L 570 536 L 571 536 L 572 537 L 573 537 L 574 536 L 591 536 L 592 537 L 606 537 L 609 534 L 610 534 L 611 533 L 611 532 L 612 531 L 612 529 L 613 528 L 613 514 L 612 513 L 612 510 L 611 509 L 611 487 L 612 486 L 612 485 L 611 484 L 611 477 L 610 476 L 610 473 L 611 472 L 611 470 L 610 469 L 610 449 L 609 448 L 609 445 L 610 444 L 610 443 L 609 442 L 609 433 L 610 432 L 610 431 L 609 430 L 609 410 L 610 409 L 610 407 L 609 406 L 609 403 L 610 402 L 610 398 L 608 395 L 608 393 L 609 392 L 609 363 L 610 362 L 609 359 L 610 358 L 610 353 L 609 352 L 609 348 L 606 343 Z M 418 530 L 419 529 L 421 529 L 422 528 L 427 528 L 428 527 L 436 527 L 437 526 L 444 526 L 445 525 L 460 525 L 461 526 L 471 526 L 472 527 L 474 527 L 475 528 L 479 528 L 482 530 L 479 532 L 475 532 L 474 531 L 473 531 L 472 532 L 471 531 L 470 532 L 469 531 L 462 531 L 461 530 L 458 530 L 457 531 L 456 531 L 455 530 L 443 530 L 442 531 L 419 531 Z M 529 529 L 529 528 L 530 527 L 532 527 L 533 526 L 536 526 L 537 525 L 542 525 L 543 524 L 552 524 L 553 523 L 555 523 L 556 524 L 571 524 L 572 525 L 581 525 L 582 526 L 581 527 L 578 527 L 577 528 L 563 528 L 562 529 L 559 529 L 558 528 L 557 528 L 556 529 L 555 529 L 554 528 L 545 528 L 544 529 L 538 529 L 537 530 L 530 530 Z M 410 345 L 412 345 L 413 344 L 422 344 L 423 343 L 434 343 L 435 342 L 438 342 L 439 341 L 462 341 L 463 342 L 469 342 L 470 343 L 476 343 L 477 344 L 480 344 L 481 345 L 484 346 L 485 347 L 485 348 L 487 350 L 488 350 L 491 353 L 491 354 L 492 355 L 492 359 L 493 360 L 493 371 L 492 372 L 492 379 L 493 380 L 493 388 L 494 389 L 494 394 L 495 395 L 495 419 L 496 420 L 496 440 L 497 441 L 497 442 L 496 443 L 497 444 L 497 466 L 498 467 L 498 481 L 497 482 L 498 483 L 498 484 L 497 485 L 497 496 L 498 497 L 498 508 L 497 509 L 497 512 L 498 513 L 498 514 L 497 515 L 497 522 L 495 524 L 494 524 L 493 523 L 490 523 L 487 521 L 484 521 L 483 520 L 478 520 L 477 519 L 471 519 L 470 518 L 466 518 L 465 517 L 456 517 L 455 518 L 451 518 L 450 517 L 449 517 L 448 518 L 436 518 L 435 519 L 417 519 L 416 520 L 413 520 L 410 522 L 407 522 L 406 521 L 405 521 L 403 518 L 403 509 L 404 508 L 404 507 L 403 506 L 403 505 L 404 504 L 404 503 L 403 502 L 403 498 L 404 497 L 404 494 L 403 493 L 403 490 L 404 489 L 404 475 L 403 474 L 403 465 L 404 464 L 404 458 L 402 455 L 402 448 L 403 447 L 403 443 L 404 442 L 404 441 L 403 440 L 403 415 L 402 414 L 402 413 L 403 412 L 403 408 L 402 407 L 402 403 L 401 402 L 401 401 L 402 400 L 402 350 L 404 348 L 406 348 L 408 346 L 409 346 Z M 521 340 L 523 340 L 524 339 L 527 339 L 528 338 L 534 338 L 535 337 L 536 338 L 538 338 L 539 337 L 545 337 L 546 336 L 547 337 L 559 337 L 560 338 L 561 338 L 562 337 L 564 337 L 565 338 L 572 338 L 573 339 L 577 339 L 580 341 L 584 341 L 585 342 L 587 342 L 588 343 L 589 343 L 593 347 L 593 349 L 596 354 L 596 357 L 597 358 L 597 362 L 598 363 L 598 370 L 597 371 L 597 377 L 598 378 L 598 387 L 597 388 L 597 406 L 598 407 L 598 409 L 597 410 L 598 411 L 598 415 L 597 416 L 597 426 L 598 427 L 598 429 L 597 430 L 597 450 L 596 451 L 596 455 L 597 456 L 597 459 L 596 460 L 596 463 L 597 464 L 597 474 L 596 475 L 596 478 L 597 479 L 597 482 L 596 483 L 597 484 L 596 485 L 596 498 L 597 499 L 597 516 L 596 517 L 596 519 L 595 520 L 592 520 L 591 519 L 585 519 L 584 518 L 584 517 L 583 517 L 582 518 L 576 518 L 575 517 L 574 518 L 573 517 L 566 517 L 565 516 L 563 516 L 562 515 L 560 515 L 559 516 L 556 515 L 555 516 L 550 516 L 549 517 L 540 517 L 539 518 L 534 518 L 533 519 L 529 519 L 528 520 L 523 520 L 522 521 L 520 521 L 519 522 L 516 522 L 512 518 L 512 517 L 510 514 L 510 508 L 509 507 L 509 496 L 507 493 L 507 491 L 508 490 L 509 491 L 508 490 L 508 488 L 509 487 L 509 486 L 510 485 L 511 485 L 511 484 L 510 485 L 509 485 L 507 482 L 507 481 L 508 480 L 508 479 L 507 478 L 507 477 L 508 476 L 508 468 L 507 467 L 508 466 L 508 463 L 507 462 L 507 453 L 508 452 L 508 447 L 507 446 L 507 432 L 506 431 L 506 402 L 507 401 L 507 379 L 508 378 L 507 377 L 507 362 L 508 361 L 508 359 L 507 358 L 507 351 L 506 350 L 507 349 L 507 348 L 510 345 L 512 345 L 513 344 L 515 344 L 517 342 L 518 342 Z M 42 328 L 40 331 L 40 333 L 39 334 L 39 338 L 38 339 L 38 349 L 39 350 L 39 355 L 40 356 L 40 357 L 43 360 L 50 360 L 51 361 L 80 361 L 81 362 L 84 362 L 85 361 L 86 361 L 87 362 L 94 362 L 95 361 L 98 361 L 99 362 L 102 361 L 103 362 L 104 361 L 110 361 L 111 362 L 120 362 L 122 364 L 122 367 L 123 368 L 123 369 L 122 370 L 122 371 L 123 372 L 123 375 L 122 376 L 122 378 L 121 379 L 115 379 L 114 380 L 109 380 L 108 381 L 89 381 L 88 382 L 75 382 L 74 383 L 71 383 L 70 384 L 68 384 L 65 386 L 63 386 L 62 387 L 59 388 L 57 390 L 56 390 L 53 393 L 53 394 L 51 396 L 50 396 L 50 398 L 48 400 L 48 401 L 46 404 L 46 406 L 44 409 L 44 418 L 43 419 L 43 439 L 44 440 L 44 443 L 43 444 L 43 452 L 44 453 L 44 456 L 45 457 L 45 465 L 46 466 L 46 475 L 47 476 L 47 479 L 48 480 L 48 481 L 52 485 L 53 485 L 58 488 L 68 488 L 69 489 L 76 489 L 77 490 L 78 489 L 88 489 L 89 490 L 99 490 L 100 489 L 101 489 L 102 490 L 108 490 L 109 489 L 110 489 L 111 490 L 112 489 L 114 489 L 115 490 L 120 490 L 121 491 L 121 494 L 122 495 L 122 506 L 124 509 L 126 509 L 127 510 L 136 510 L 137 509 L 148 509 L 149 510 L 150 510 L 151 509 L 156 509 L 157 508 L 159 508 L 162 503 L 162 494 L 163 493 L 163 491 L 168 488 L 175 488 L 176 489 L 184 489 L 185 488 L 189 488 L 190 489 L 191 489 L 192 488 L 193 489 L 196 489 L 197 490 L 198 490 L 201 493 L 201 511 L 198 514 L 197 514 L 196 515 L 194 515 L 193 516 L 184 516 L 183 517 L 174 517 L 173 518 L 172 518 L 171 517 L 160 517 L 159 518 L 158 517 L 137 517 L 136 516 L 113 516 L 112 515 L 105 515 L 104 514 L 102 514 L 101 513 L 99 513 L 93 509 L 93 506 L 92 505 L 92 504 L 93 503 L 93 497 L 90 494 L 78 494 L 77 493 L 53 493 L 52 494 L 49 495 L 47 497 L 47 502 L 45 505 L 45 517 L 46 518 L 46 523 L 47 524 L 47 526 L 48 527 L 48 528 L 49 529 L 50 532 L 52 534 L 52 535 L 56 539 L 59 540 L 62 543 L 64 543 L 66 545 L 67 545 L 68 546 L 70 546 L 71 547 L 75 547 L 76 548 L 81 548 L 82 549 L 85 549 L 86 550 L 91 550 L 92 551 L 94 551 L 95 550 L 102 550 L 103 551 L 115 551 L 116 552 L 146 552 L 147 551 L 155 551 L 156 552 L 180 552 L 181 551 L 182 551 L 183 552 L 198 552 L 199 551 L 208 551 L 209 550 L 216 550 L 217 549 L 220 549 L 221 548 L 224 548 L 225 547 L 227 547 L 230 545 L 232 545 L 233 544 L 235 544 L 239 540 L 240 540 L 240 539 L 242 536 L 242 534 L 243 533 L 243 528 L 245 525 L 245 521 L 246 520 L 246 519 L 245 518 L 245 517 L 246 516 L 245 515 L 245 510 L 246 509 L 246 501 L 247 500 L 247 497 L 248 496 L 248 491 L 249 490 L 249 487 L 248 486 L 248 477 L 247 476 L 247 468 L 248 467 L 248 466 L 247 465 L 246 462 L 244 460 L 244 459 L 243 459 L 239 455 L 238 455 L 237 454 L 229 454 L 228 453 L 226 453 L 225 452 L 220 452 L 219 451 L 212 451 L 211 452 L 196 452 L 195 453 L 180 453 L 179 452 L 178 452 L 177 453 L 173 453 L 172 452 L 169 452 L 168 451 L 166 451 L 163 448 L 163 445 L 162 444 L 162 434 L 163 433 L 163 428 L 167 424 L 168 424 L 169 425 L 171 425 L 172 424 L 176 424 L 177 425 L 179 425 L 180 424 L 192 424 L 193 425 L 194 425 L 196 427 L 196 432 L 197 433 L 197 434 L 198 435 L 199 438 L 206 443 L 215 443 L 216 442 L 217 443 L 223 443 L 224 444 L 228 444 L 229 443 L 231 443 L 232 444 L 235 444 L 236 443 L 237 444 L 241 444 L 243 442 L 246 441 L 246 440 L 247 439 L 247 431 L 246 430 L 246 417 L 245 416 L 245 411 L 244 410 L 244 405 L 243 404 L 243 401 L 242 400 L 242 397 L 241 396 L 241 394 L 240 393 L 239 393 L 237 391 L 237 390 L 233 386 L 233 385 L 227 385 L 226 384 L 224 384 L 221 382 L 218 382 L 217 383 L 215 383 L 214 382 L 208 382 L 207 381 L 204 381 L 203 382 L 202 381 L 191 381 L 190 380 L 175 380 L 174 379 L 171 379 L 170 378 L 168 378 L 166 376 L 166 375 L 165 374 L 165 372 L 166 371 L 165 370 L 166 369 L 165 368 L 167 365 L 168 365 L 170 363 L 171 363 L 172 362 L 210 362 L 211 361 L 212 362 L 221 362 L 222 363 L 224 363 L 225 362 L 243 362 L 244 361 L 245 361 L 247 359 L 247 358 L 249 355 L 248 354 L 248 353 L 249 352 L 249 349 L 250 348 L 250 339 L 249 338 L 249 333 L 246 330 L 243 330 L 242 329 L 223 329 L 222 328 L 219 328 L 218 329 L 217 328 L 216 328 L 215 329 L 214 328 L 207 328 L 206 329 L 205 329 L 204 328 L 196 328 L 195 329 L 193 329 L 192 328 L 174 328 L 173 329 L 172 329 L 171 328 L 151 328 L 150 327 L 148 327 L 147 328 L 143 328 L 142 327 L 141 327 L 140 328 L 138 328 L 137 327 L 120 327 L 119 328 L 118 327 L 111 327 L 110 326 L 109 327 L 101 327 L 100 326 L 99 326 L 98 327 L 97 327 L 96 326 L 94 326 L 93 327 L 88 327 L 87 326 L 86 327 L 83 327 L 82 326 L 76 326 L 75 325 L 73 325 L 72 326 L 59 326 L 58 325 L 55 325 L 54 324 L 53 324 L 52 325 L 49 325 L 48 326 L 45 326 L 43 328 Z M 236 470 L 235 471 L 235 474 L 236 475 L 236 497 L 235 498 L 235 502 L 236 503 L 235 504 L 235 510 L 234 511 L 234 512 L 235 513 L 235 516 L 234 517 L 234 521 L 233 522 L 233 524 L 231 527 L 232 528 L 232 529 L 231 530 L 231 531 L 226 536 L 226 537 L 225 538 L 224 538 L 219 541 L 217 541 L 216 542 L 214 542 L 211 544 L 188 544 L 187 545 L 168 545 L 167 546 L 163 546 L 162 545 L 161 545 L 160 546 L 155 546 L 154 545 L 146 545 L 145 544 L 139 544 L 138 545 L 133 545 L 132 544 L 127 544 L 126 543 L 121 543 L 120 544 L 119 544 L 118 543 L 109 543 L 108 542 L 100 542 L 99 541 L 93 541 L 92 540 L 88 540 L 87 539 L 86 540 L 85 539 L 83 539 L 82 538 L 78 538 L 75 536 L 73 536 L 72 535 L 70 535 L 68 533 L 66 533 L 64 531 L 63 531 L 61 528 L 61 526 L 60 525 L 60 524 L 59 523 L 59 521 L 58 520 L 58 513 L 57 512 L 58 511 L 58 509 L 59 508 L 59 507 L 61 505 L 68 505 L 69 506 L 71 506 L 72 505 L 73 505 L 74 506 L 79 506 L 81 508 L 81 513 L 82 514 L 82 515 L 85 518 L 85 519 L 87 521 L 88 521 L 89 522 L 91 522 L 92 523 L 94 523 L 95 524 L 98 524 L 99 525 L 102 525 L 103 526 L 114 526 L 115 527 L 118 527 L 119 528 L 120 527 L 134 527 L 135 528 L 158 528 L 159 527 L 184 527 L 185 526 L 194 526 L 195 525 L 201 525 L 202 524 L 204 524 L 206 522 L 207 522 L 207 521 L 210 518 L 210 517 L 211 516 L 211 512 L 212 511 L 212 500 L 213 499 L 212 498 L 212 490 L 211 489 L 210 486 L 208 484 L 208 483 L 207 483 L 205 481 L 204 481 L 199 478 L 198 479 L 196 479 L 195 478 L 188 478 L 187 477 L 185 477 L 184 478 L 180 478 L 179 477 L 169 477 L 168 476 L 165 476 L 162 473 L 162 469 L 163 468 L 163 465 L 166 462 L 170 462 L 171 461 L 175 461 L 176 460 L 187 460 L 188 461 L 191 460 L 192 461 L 194 461 L 195 462 L 198 462 L 199 463 L 201 463 L 202 462 L 212 462 L 213 463 L 225 463 L 226 464 L 230 464 L 232 466 L 233 466 L 234 467 L 234 468 Z M 96 426 L 97 426 L 99 424 L 100 424 L 101 423 L 106 423 L 107 422 L 117 422 L 118 423 L 122 423 L 124 426 L 124 432 L 123 433 L 123 440 L 122 441 L 122 449 L 119 452 L 112 452 L 111 451 L 105 451 L 104 452 L 103 452 L 102 451 L 97 451 L 96 450 L 95 450 L 92 447 L 92 446 L 90 443 L 90 438 L 91 437 L 91 434 L 92 433 L 93 430 L 95 428 L 95 427 Z M 55 451 L 55 443 L 54 442 L 54 431 L 55 430 L 55 421 L 56 420 L 55 417 L 57 414 L 57 412 L 58 411 L 58 409 L 59 408 L 59 407 L 60 406 L 60 405 L 61 404 L 62 401 L 63 400 L 64 400 L 68 396 L 70 396 L 71 395 L 76 395 L 77 394 L 79 394 L 80 393 L 84 393 L 85 392 L 94 392 L 95 391 L 112 391 L 113 390 L 114 391 L 145 391 L 146 390 L 161 390 L 162 391 L 165 391 L 166 390 L 171 390 L 172 391 L 181 391 L 182 390 L 186 390 L 187 391 L 194 391 L 195 392 L 199 392 L 200 393 L 205 393 L 206 394 L 207 393 L 209 393 L 210 394 L 213 393 L 214 394 L 217 394 L 218 395 L 220 395 L 223 397 L 226 397 L 230 401 L 230 402 L 231 403 L 231 406 L 232 407 L 232 411 L 233 412 L 233 415 L 234 416 L 234 418 L 235 419 L 235 426 L 234 427 L 234 429 L 232 431 L 230 431 L 229 432 L 228 432 L 227 431 L 226 431 L 225 432 L 224 432 L 223 431 L 222 431 L 221 432 L 218 432 L 217 431 L 213 431 L 212 430 L 211 430 L 209 428 L 209 427 L 207 424 L 208 421 L 207 420 L 207 419 L 206 419 L 204 416 L 203 416 L 202 415 L 199 415 L 198 414 L 196 414 L 195 413 L 181 413 L 180 412 L 174 412 L 173 411 L 172 411 L 171 412 L 166 412 L 165 411 L 164 411 L 163 412 L 148 412 L 147 411 L 146 411 L 145 412 L 128 412 L 127 413 L 124 413 L 123 412 L 120 412 L 119 413 L 114 413 L 113 412 L 103 412 L 102 413 L 98 413 L 97 414 L 93 414 L 92 415 L 88 415 L 87 416 L 85 416 L 81 420 L 81 421 L 80 422 L 79 422 L 79 423 L 77 425 L 77 427 L 76 428 L 76 443 L 79 448 L 79 453 L 80 454 L 80 455 L 83 458 L 86 459 L 88 461 L 90 461 L 91 462 L 93 462 L 94 463 L 119 463 L 121 466 L 121 470 L 122 471 L 122 472 L 120 475 L 113 475 L 112 476 L 101 476 L 100 477 L 77 477 L 76 476 L 71 476 L 70 475 L 63 475 L 60 472 L 60 471 L 59 470 L 59 468 L 58 467 L 58 462 L 57 461 L 57 457 L 56 456 L 56 452 Z M 310 261 L 309 262 L 309 264 L 310 265 L 310 266 Z M 201 50 L 199 50 L 198 49 L 196 49 L 195 50 L 192 51 L 192 53 L 191 54 L 191 56 L 190 57 L 190 60 L 189 61 L 189 63 L 188 64 L 188 66 L 187 67 L 187 69 L 186 70 L 186 72 L 185 73 L 185 75 L 184 76 L 184 79 L 182 82 L 182 85 L 181 86 L 181 87 L 180 88 L 180 90 L 178 93 L 178 95 L 177 96 L 177 98 L 176 99 L 176 101 L 175 102 L 175 104 L 174 105 L 174 106 L 172 109 L 172 111 L 171 112 L 171 113 L 168 118 L 168 121 L 171 123 L 176 123 L 177 122 L 181 122 L 182 121 L 182 120 L 183 119 L 183 115 L 182 114 L 182 112 L 183 111 L 184 108 L 186 106 L 200 106 L 201 107 L 201 108 L 203 110 L 203 118 L 202 119 L 202 122 L 203 123 L 204 123 L 205 124 L 215 124 L 217 122 L 217 116 L 215 114 L 215 113 L 214 112 L 214 108 L 213 107 L 213 103 L 212 102 L 212 99 L 211 98 L 211 93 L 210 92 L 210 88 L 209 87 L 209 81 L 208 80 L 208 73 L 207 72 L 207 67 L 205 64 L 205 60 L 204 59 L 204 55 Z M 195 75 L 196 76 L 196 77 L 197 78 L 197 80 L 198 81 L 198 86 L 199 87 L 199 95 L 198 96 L 191 96 L 189 94 L 189 92 L 190 91 L 190 88 L 192 85 L 192 82 L 194 79 L 194 76 Z M 163 49 L 160 49 L 159 50 L 158 49 L 157 50 L 154 50 L 153 51 L 151 51 L 150 50 L 149 51 L 148 51 L 146 53 L 146 56 L 149 61 L 149 72 L 148 73 L 148 94 L 147 95 L 147 99 L 148 100 L 148 104 L 147 105 L 147 107 L 148 108 L 147 109 L 147 112 L 146 113 L 146 116 L 144 119 L 144 121 L 145 122 L 145 123 L 147 123 L 148 124 L 153 124 L 154 125 L 155 125 L 156 124 L 158 124 L 161 122 L 161 116 L 160 115 L 159 115 L 157 112 L 157 109 L 158 108 L 158 102 L 159 101 L 161 101 L 162 100 L 165 100 L 166 99 L 168 99 L 170 97 L 171 97 L 174 94 L 174 93 L 176 90 L 176 88 L 177 87 L 177 85 L 178 84 L 178 78 L 179 77 L 179 67 L 178 66 L 178 64 L 177 63 L 177 61 L 175 58 L 175 56 L 174 55 L 174 54 L 173 53 L 171 53 L 170 52 L 169 52 L 166 50 L 164 50 Z M 160 60 L 164 60 L 167 63 L 167 85 L 166 86 L 166 87 L 163 89 L 159 89 L 158 88 L 158 81 L 159 80 L 159 61 Z M 94 49 L 90 53 L 90 54 L 91 55 L 91 56 L 93 58 L 93 60 L 94 61 L 94 99 L 93 100 L 93 113 L 92 114 L 92 116 L 91 117 L 91 121 L 92 122 L 94 122 L 95 123 L 103 123 L 106 121 L 106 119 L 103 114 L 103 105 L 102 104 L 102 101 L 103 100 L 103 95 L 104 94 L 106 96 L 106 99 L 107 100 L 107 102 L 108 103 L 108 106 L 109 107 L 109 109 L 110 110 L 110 113 L 111 114 L 111 117 L 112 118 L 112 120 L 113 121 L 115 121 L 117 119 L 117 118 L 118 117 L 118 115 L 119 114 L 119 111 L 121 108 L 121 105 L 122 104 L 122 101 L 123 100 L 123 98 L 124 97 L 124 94 L 125 93 L 125 91 L 126 90 L 127 91 L 127 93 L 128 94 L 127 95 L 127 112 L 124 117 L 124 122 L 125 122 L 128 124 L 132 124 L 133 123 L 134 124 L 136 124 L 137 123 L 139 123 L 139 122 L 140 121 L 140 119 L 139 118 L 139 116 L 138 115 L 138 94 L 139 93 L 139 89 L 138 88 L 138 81 L 139 80 L 139 61 L 140 60 L 140 59 L 143 54 L 142 53 L 142 52 L 140 50 L 134 50 L 133 49 L 131 51 L 129 51 L 126 54 L 126 58 L 125 59 L 125 61 L 123 63 L 123 65 L 124 66 L 122 68 L 122 69 L 121 70 L 121 72 L 120 73 L 120 76 L 118 79 L 118 82 L 117 83 L 117 84 L 115 86 L 113 83 L 113 80 L 112 79 L 112 76 L 111 75 L 111 73 L 110 72 L 110 69 L 109 68 L 109 64 L 108 63 L 108 59 L 106 56 L 106 53 L 104 51 L 103 51 L 100 49 L 98 49 L 97 50 L 95 50 Z M 87 49 L 75 49 L 72 51 L 72 52 L 73 53 L 73 55 L 74 56 L 74 61 L 75 62 L 75 104 L 74 105 L 74 114 L 72 117 L 72 119 L 74 122 L 76 122 L 77 123 L 81 123 L 82 122 L 86 122 L 88 120 L 88 118 L 87 117 L 87 115 L 86 114 L 86 112 L 85 111 L 86 110 L 86 106 L 85 105 L 85 91 L 86 90 L 86 84 L 85 83 L 86 82 L 86 75 L 85 74 L 86 73 L 85 72 L 85 67 L 86 66 L 86 58 L 88 55 L 88 50 Z M 26 49 L 24 52 L 24 56 L 23 57 L 23 60 L 24 61 L 24 64 L 25 65 L 26 65 L 27 66 L 29 66 L 31 64 L 32 64 L 32 63 L 33 62 L 34 62 L 36 60 L 40 60 L 42 63 L 42 64 L 41 65 L 41 66 L 42 67 L 42 105 L 41 106 L 42 107 L 42 109 L 41 110 L 41 114 L 39 116 L 39 119 L 40 120 L 40 121 L 41 121 L 42 122 L 44 122 L 45 123 L 46 123 L 47 122 L 53 122 L 54 121 L 54 118 L 55 117 L 55 116 L 53 113 L 53 62 L 55 60 L 59 60 L 61 62 L 62 62 L 63 63 L 63 64 L 64 64 L 65 65 L 68 65 L 70 63 L 70 53 L 69 52 L 69 51 L 68 51 L 67 50 L 63 50 L 62 49 Z M 307 48 L 304 48 L 303 47 L 302 48 L 296 48 L 293 51 L 293 53 L 292 54 L 292 58 L 291 59 L 291 62 L 289 65 L 289 67 L 288 68 L 288 70 L 287 71 L 287 72 L 285 75 L 285 77 L 284 78 L 283 78 L 282 77 L 282 75 L 281 74 L 281 69 L 280 68 L 280 66 L 279 65 L 279 62 L 277 59 L 277 57 L 278 56 L 278 51 L 276 49 L 275 49 L 274 48 L 268 48 L 267 49 L 265 49 L 263 52 L 263 56 L 265 58 L 265 61 L 266 62 L 266 65 L 267 66 L 267 68 L 268 69 L 268 71 L 269 72 L 269 74 L 270 75 L 270 77 L 271 78 L 271 80 L 273 83 L 273 85 L 274 86 L 274 88 L 276 91 L 276 101 L 277 102 L 277 103 L 276 104 L 276 113 L 275 114 L 275 119 L 277 121 L 278 121 L 279 122 L 283 122 L 284 121 L 285 121 L 285 120 L 287 118 L 287 117 L 289 114 L 289 94 L 290 93 L 290 91 L 292 88 L 292 86 L 293 85 L 293 83 L 294 82 L 294 81 L 296 79 L 296 78 L 298 75 L 298 73 L 301 68 L 301 66 L 302 65 L 302 64 L 304 62 L 304 60 L 308 55 L 308 53 L 309 52 L 309 50 Z M 257 47 L 253 47 L 252 48 L 251 48 L 250 47 L 249 47 L 248 48 L 244 48 L 241 51 L 241 53 L 244 56 L 244 57 L 245 58 L 245 71 L 246 72 L 246 83 L 247 84 L 247 89 L 246 90 L 247 91 L 247 93 L 246 94 L 245 93 L 245 92 L 244 91 L 244 89 L 242 86 L 242 83 L 241 82 L 241 80 L 240 79 L 240 78 L 239 77 L 239 75 L 237 72 L 237 69 L 236 68 L 236 65 L 235 64 L 235 61 L 233 59 L 233 55 L 231 53 L 231 52 L 229 50 L 220 50 L 219 51 L 216 52 L 216 54 L 220 59 L 220 73 L 221 74 L 221 108 L 222 109 L 222 111 L 220 114 L 220 120 L 222 122 L 224 122 L 225 123 L 231 123 L 232 122 L 235 122 L 236 121 L 236 116 L 234 114 L 234 112 L 233 111 L 233 109 L 232 108 L 232 107 L 233 106 L 232 105 L 232 95 L 231 94 L 231 89 L 232 88 L 234 90 L 234 92 L 235 93 L 235 94 L 237 97 L 237 99 L 239 102 L 239 105 L 241 108 L 241 111 L 242 112 L 242 115 L 243 116 L 243 119 L 244 120 L 244 121 L 245 121 L 246 122 L 250 122 L 251 123 L 254 123 L 255 122 L 258 122 L 259 121 L 259 117 L 258 116 L 258 111 L 257 110 L 257 104 L 258 103 L 258 96 L 257 95 L 257 94 L 258 93 L 258 86 L 257 85 L 257 67 L 256 66 L 256 61 L 259 56 L 259 54 L 260 53 L 260 50 L 259 49 L 259 48 L 258 48 Z M 560 43 L 550 43 L 549 44 L 546 43 L 545 44 L 538 44 L 535 46 L 533 46 L 532 47 L 531 47 L 528 50 L 528 51 L 527 52 L 527 70 L 528 71 L 528 72 L 527 73 L 528 74 L 528 76 L 527 77 L 528 78 L 528 84 L 527 85 L 527 87 L 528 88 L 527 89 L 527 94 L 528 95 L 528 109 L 529 110 L 529 111 L 533 115 L 534 115 L 535 116 L 545 116 L 546 117 L 548 117 L 549 116 L 552 116 L 553 115 L 559 115 L 560 114 L 562 114 L 563 113 L 564 113 L 567 110 L 567 106 L 568 105 L 568 104 L 567 103 L 567 100 L 569 98 L 569 95 L 568 94 L 568 89 L 569 88 L 569 83 L 568 82 L 568 81 L 569 80 L 569 69 L 568 68 L 569 67 L 568 66 L 568 53 L 567 52 L 567 49 L 565 47 L 565 46 L 564 46 L 562 44 L 561 44 Z M 547 52 L 552 52 L 553 53 L 555 53 L 557 55 L 557 63 L 558 64 L 558 74 L 557 75 L 557 76 L 558 77 L 558 90 L 557 91 L 557 94 L 558 95 L 558 99 L 557 100 L 557 102 L 556 103 L 556 106 L 555 107 L 543 107 L 541 105 L 541 104 L 540 104 L 539 103 L 539 102 L 538 101 L 539 100 L 538 99 L 539 98 L 539 96 L 538 95 L 538 90 L 539 89 L 539 85 L 538 84 L 538 75 L 539 74 L 539 70 L 538 69 L 538 56 L 543 53 L 546 53 Z M 428 45 L 426 47 L 426 48 L 425 49 L 426 50 L 426 51 L 428 53 L 428 55 L 429 56 L 429 71 L 428 72 L 429 73 L 429 90 L 428 91 L 428 98 L 427 99 L 428 100 L 428 109 L 426 111 L 426 112 L 425 113 L 425 117 L 427 119 L 442 119 L 444 117 L 444 114 L 443 113 L 443 111 L 441 109 L 441 108 L 440 107 L 440 99 L 439 98 L 440 97 L 440 95 L 441 94 L 441 91 L 443 89 L 457 89 L 459 91 L 459 92 L 460 93 L 460 104 L 458 106 L 458 107 L 455 112 L 455 117 L 456 118 L 458 118 L 459 119 L 463 119 L 464 120 L 466 120 L 467 119 L 469 119 L 472 117 L 474 117 L 476 115 L 476 112 L 475 111 L 475 110 L 474 110 L 471 107 L 471 106 L 470 105 L 470 97 L 471 96 L 471 91 L 470 90 L 470 82 L 471 81 L 471 73 L 470 72 L 470 67 L 471 66 L 471 62 L 472 61 L 471 60 L 471 55 L 472 54 L 472 53 L 473 52 L 474 52 L 477 49 L 477 47 L 475 45 L 472 45 L 471 44 L 460 44 L 459 45 L 457 45 L 456 46 L 454 46 L 453 47 L 453 48 L 454 49 L 453 50 L 453 51 L 454 52 L 457 53 L 460 56 L 460 75 L 458 77 L 457 77 L 456 78 L 451 78 L 450 77 L 447 77 L 444 79 L 443 78 L 441 78 L 440 77 L 440 73 L 441 72 L 441 70 L 440 69 L 440 67 L 439 66 L 440 65 L 439 64 L 439 61 L 442 56 L 442 54 L 444 52 L 444 51 L 445 50 L 445 46 L 444 45 L 442 45 L 441 44 L 437 44 L 436 43 L 435 43 L 434 44 L 431 44 L 430 45 Z M 377 44 L 374 44 L 373 43 L 370 44 L 369 43 L 368 43 L 367 44 L 365 44 L 363 46 L 356 46 L 355 47 L 352 46 L 350 48 L 339 48 L 335 52 L 335 53 L 333 56 L 333 58 L 332 59 L 332 62 L 331 63 L 331 69 L 332 70 L 332 77 L 333 78 L 333 80 L 335 82 L 335 83 L 339 87 L 340 87 L 342 89 L 343 89 L 344 90 L 346 90 L 347 91 L 351 91 L 352 92 L 353 92 L 356 95 L 358 95 L 359 96 L 362 97 L 366 101 L 366 102 L 369 107 L 369 112 L 368 113 L 360 113 L 359 112 L 348 112 L 346 110 L 346 108 L 345 107 L 345 106 L 341 102 L 339 102 L 338 101 L 337 101 L 336 102 L 335 102 L 333 104 L 333 115 L 334 116 L 334 118 L 335 119 L 335 120 L 337 120 L 338 121 L 358 121 L 359 122 L 374 122 L 375 121 L 377 121 L 377 120 L 379 117 L 379 109 L 380 108 L 380 98 L 376 94 L 375 94 L 373 92 L 372 92 L 371 91 L 370 91 L 368 89 L 367 89 L 366 88 L 366 87 L 363 86 L 361 84 L 357 84 L 356 83 L 355 83 L 352 80 L 351 80 L 349 78 L 348 78 L 346 76 L 346 75 L 345 74 L 345 67 L 344 66 L 344 65 L 345 64 L 345 59 L 346 58 L 347 58 L 348 57 L 351 57 L 352 56 L 356 56 L 357 55 L 360 56 L 361 55 L 362 56 L 364 56 L 365 57 L 365 64 L 369 68 L 370 68 L 371 69 L 376 69 L 378 67 L 378 65 L 379 64 L 379 57 L 378 56 L 378 53 L 379 52 L 379 47 Z M 572 44 L 570 46 L 570 47 L 571 48 L 571 49 L 573 51 L 573 53 L 574 54 L 574 60 L 575 61 L 575 82 L 574 83 L 574 84 L 575 85 L 575 98 L 574 99 L 574 101 L 575 102 L 574 103 L 574 108 L 573 109 L 573 113 L 576 115 L 589 115 L 590 114 L 598 114 L 599 115 L 600 114 L 609 114 L 610 113 L 614 113 L 614 111 L 615 110 L 615 109 L 614 108 L 615 107 L 614 106 L 615 105 L 615 104 L 614 103 L 614 99 L 615 98 L 615 97 L 613 94 L 610 94 L 607 96 L 607 98 L 606 99 L 606 100 L 603 105 L 588 105 L 586 103 L 586 86 L 585 85 L 586 84 L 586 74 L 585 73 L 585 70 L 586 69 L 586 51 L 590 47 L 590 44 L 589 44 L 587 42 L 586 42 L 585 43 L 574 43 L 573 44 Z M 498 42 L 496 44 L 492 44 L 491 45 L 489 45 L 488 46 L 487 46 L 485 48 L 485 50 L 483 53 L 483 55 L 482 56 L 482 58 L 481 59 L 482 60 L 482 62 L 481 63 L 481 66 L 482 67 L 482 100 L 483 101 L 483 106 L 484 107 L 484 109 L 485 110 L 485 112 L 487 114 L 487 115 L 488 115 L 490 117 L 492 117 L 493 118 L 499 118 L 500 119 L 506 119 L 507 118 L 515 118 L 516 117 L 517 117 L 521 113 L 522 113 L 522 110 L 523 109 L 522 108 L 522 100 L 523 99 L 523 98 L 522 97 L 523 96 L 523 94 L 522 93 L 522 90 L 523 89 L 523 82 L 522 81 L 522 78 L 523 77 L 523 64 L 522 63 L 523 62 L 523 56 L 522 55 L 522 52 L 520 50 L 520 49 L 519 48 L 518 45 L 517 45 L 516 44 L 514 44 L 513 43 L 508 43 L 507 42 L 506 43 L 505 42 Z M 501 51 L 506 51 L 507 52 L 509 52 L 512 54 L 512 69 L 513 70 L 513 87 L 512 88 L 512 92 L 513 93 L 513 96 L 512 97 L 512 103 L 511 104 L 511 106 L 508 109 L 507 109 L 506 110 L 505 110 L 504 109 L 502 109 L 501 108 L 499 108 L 494 104 L 494 77 L 495 76 L 495 75 L 494 74 L 494 58 L 495 57 L 495 55 L 498 52 L 500 52 Z M 419 42 L 416 42 L 415 43 L 414 43 L 412 45 L 408 45 L 407 44 L 400 44 L 399 45 L 394 45 L 392 47 L 391 47 L 390 48 L 388 48 L 387 49 L 387 50 L 386 51 L 386 54 L 384 57 L 384 74 L 385 75 L 385 87 L 386 88 L 386 93 L 385 94 L 385 101 L 386 102 L 386 105 L 387 106 L 387 110 L 394 117 L 396 117 L 399 119 L 409 119 L 410 120 L 411 119 L 414 119 L 415 118 L 416 118 L 420 114 L 420 111 L 421 110 L 421 103 L 420 102 L 420 100 L 419 99 L 417 99 L 416 100 L 414 100 L 412 102 L 412 104 L 409 107 L 408 107 L 406 109 L 400 109 L 397 107 L 397 104 L 396 103 L 396 97 L 395 96 L 395 95 L 396 94 L 396 92 L 395 91 L 396 90 L 396 85 L 395 84 L 395 76 L 396 75 L 396 70 L 395 69 L 395 68 L 396 67 L 396 59 L 397 58 L 397 57 L 399 55 L 400 55 L 402 53 L 403 53 L 404 52 L 407 52 L 408 53 L 410 53 L 412 55 L 412 59 L 411 60 L 411 61 L 412 62 L 412 66 L 413 66 L 415 68 L 418 68 L 419 69 L 422 69 L 423 68 L 423 55 L 422 54 L 422 48 L 423 47 L 422 46 L 422 44 Z M 627 7 L 626 7 L 623 4 L 622 4 L 621 3 L 618 3 L 617 2 L 615 2 L 614 3 L 592 3 L 591 4 L 590 3 L 580 3 L 579 4 L 565 4 L 564 3 L 563 4 L 551 4 L 550 5 L 549 5 L 548 4 L 537 4 L 536 5 L 535 5 L 534 4 L 531 4 L 530 5 L 515 5 L 514 4 L 511 4 L 510 5 L 508 5 L 507 4 L 506 5 L 491 5 L 490 4 L 486 4 L 485 5 L 460 5 L 459 6 L 457 6 L 456 5 L 450 5 L 449 6 L 444 6 L 443 7 L 440 5 L 439 5 L 438 6 L 437 6 L 436 5 L 435 6 L 434 6 L 433 5 L 431 5 L 430 6 L 424 6 L 423 5 L 422 6 L 414 6 L 413 7 L 405 7 L 404 6 L 402 6 L 401 7 L 396 7 L 395 6 L 394 6 L 393 7 L 383 7 L 382 8 L 379 8 L 378 7 L 368 7 L 367 8 L 364 8 L 363 7 L 362 8 L 361 8 L 360 7 L 359 8 L 343 8 L 342 7 L 340 9 L 339 8 L 335 8 L 334 9 L 333 8 L 325 8 L 324 9 L 322 9 L 321 8 L 316 8 L 315 9 L 313 9 L 312 8 L 303 8 L 302 9 L 294 9 L 293 8 L 291 8 L 290 9 L 285 9 L 284 8 L 281 8 L 280 9 L 279 9 L 278 8 L 277 9 L 272 9 L 271 10 L 270 9 L 265 9 L 264 10 L 261 8 L 260 9 L 256 9 L 255 10 L 254 9 L 252 9 L 251 10 L 247 10 L 246 11 L 245 10 L 242 11 L 241 10 L 230 10 L 229 9 L 226 9 L 225 10 L 212 10 L 211 11 L 193 11 L 192 10 L 188 10 L 187 11 L 178 11 L 177 10 L 176 10 L 175 11 L 174 11 L 173 10 L 168 10 L 167 11 L 166 11 L 165 10 L 161 10 L 160 11 L 153 11 L 152 10 L 147 10 L 146 11 L 135 11 L 134 10 L 128 10 L 127 11 L 126 10 L 120 10 L 119 11 L 104 11 L 103 10 L 102 11 L 95 11 L 94 12 L 93 11 L 86 11 L 85 10 L 78 10 L 77 11 L 71 11 L 70 10 L 69 11 L 64 11 L 63 12 L 62 12 L 61 11 L 51 11 L 50 12 L 49 11 L 45 11 L 44 12 L 42 12 L 41 11 L 36 11 L 34 9 L 33 9 L 31 11 L 19 11 L 18 12 L 17 12 L 16 11 L 15 12 L 12 13 L 9 16 L 8 16 L 7 17 L 7 18 L 5 20 L 5 21 L 4 22 L 4 24 L 3 25 L 3 49 L 2 50 L 2 53 L 3 54 L 3 58 L 2 59 L 3 60 L 3 98 L 4 99 L 4 101 L 3 102 L 4 103 L 4 104 L 3 105 L 4 106 L 3 107 L 3 112 L 4 113 L 3 114 L 4 115 L 4 117 L 3 118 L 3 130 L 4 131 L 4 160 L 5 161 L 5 164 L 4 165 L 4 170 L 5 171 L 5 178 L 4 179 L 4 180 L 5 181 L 5 182 L 4 183 L 4 187 L 5 188 L 5 192 L 4 193 L 4 199 L 5 200 L 5 221 L 6 222 L 6 223 L 5 224 L 5 225 L 6 226 L 6 229 L 5 230 L 5 233 L 6 234 L 6 258 L 5 259 L 6 260 L 6 274 L 7 275 L 6 276 L 6 282 L 7 283 L 7 284 L 6 285 L 6 286 L 7 287 L 7 296 L 6 297 L 6 298 L 7 299 L 7 300 L 6 301 L 6 312 L 7 313 L 7 315 L 6 316 L 6 322 L 7 323 L 7 327 L 6 328 L 6 357 L 5 358 L 5 359 L 6 360 L 6 364 L 7 365 L 7 368 L 6 369 L 6 375 L 7 376 L 7 383 L 6 384 L 6 394 L 7 395 L 7 397 L 6 398 L 6 399 L 7 400 L 7 409 L 6 410 L 6 411 L 7 412 L 7 420 L 8 421 L 7 422 L 7 424 L 8 425 L 8 430 L 7 431 L 7 441 L 8 442 L 7 443 L 7 457 L 6 458 L 7 459 L 7 482 L 8 483 L 7 484 L 7 494 L 8 495 L 8 499 L 7 500 L 7 505 L 8 506 L 8 511 L 7 512 L 7 516 L 8 517 L 8 518 L 7 519 L 8 520 L 8 524 L 7 525 L 7 530 L 8 531 L 8 539 L 7 540 L 7 543 L 8 544 L 8 554 L 7 555 L 7 569 L 8 570 L 8 594 L 9 595 L 9 601 L 10 602 L 10 607 L 11 608 L 11 610 L 12 611 L 12 614 L 13 615 L 13 616 L 16 621 L 16 623 L 17 624 L 17 625 L 18 626 L 18 627 L 19 628 L 19 629 L 20 630 L 21 633 L 24 636 L 24 637 L 26 639 L 27 642 L 33 648 L 33 649 L 36 652 L 36 653 L 37 654 L 38 654 L 39 655 L 39 656 L 47 664 L 47 665 L 51 669 L 52 669 L 57 674 L 58 674 L 59 675 L 59 676 L 61 678 L 64 679 L 67 682 L 68 682 L 70 684 L 70 685 L 71 685 L 74 688 L 75 688 L 80 693 L 83 694 L 85 696 L 86 696 L 88 698 L 89 698 L 93 702 L 96 703 L 98 705 L 99 705 L 102 708 L 104 708 L 106 710 L 107 710 L 108 711 L 110 711 L 112 713 L 113 713 L 114 714 L 116 714 L 117 715 L 118 715 L 119 716 L 122 717 L 124 719 L 125 719 L 128 721 L 130 721 L 131 722 L 133 722 L 138 725 L 140 725 L 141 726 L 143 726 L 146 728 L 148 728 L 154 732 L 157 732 L 158 733 L 159 733 L 160 734 L 162 734 L 163 735 L 164 735 L 169 738 L 172 738 L 173 739 L 176 739 L 179 741 L 181 741 L 182 742 L 185 742 L 186 743 L 188 743 L 189 744 L 191 744 L 192 745 L 198 745 L 199 746 L 201 746 L 202 747 L 205 747 L 206 748 L 209 748 L 210 749 L 214 749 L 215 750 L 219 750 L 220 751 L 226 751 L 227 752 L 229 752 L 230 753 L 236 753 L 237 754 L 241 754 L 242 755 L 244 755 L 245 756 L 248 756 L 249 757 L 254 757 L 255 758 L 259 758 L 260 759 L 265 759 L 266 760 L 268 760 L 269 761 L 274 761 L 275 762 L 277 762 L 278 763 L 280 763 L 281 764 L 283 764 L 284 765 L 289 765 L 290 766 L 291 766 L 293 768 L 295 768 L 296 769 L 299 769 L 301 771 L 303 771 L 309 775 L 310 775 L 311 774 L 312 775 L 313 774 L 316 774 L 317 773 L 319 773 L 322 771 L 326 771 L 327 770 L 334 770 L 335 769 L 339 769 L 340 768 L 345 768 L 346 767 L 350 767 L 351 766 L 356 766 L 359 764 L 363 764 L 364 763 L 368 763 L 369 762 L 374 762 L 375 761 L 379 761 L 380 760 L 386 760 L 387 759 L 389 759 L 390 758 L 397 758 L 398 757 L 403 757 L 404 756 L 408 756 L 409 755 L 411 755 L 412 754 L 420 754 L 421 753 L 424 753 L 425 752 L 428 752 L 429 751 L 434 751 L 435 750 L 437 750 L 438 749 L 443 749 L 444 748 L 447 748 L 448 747 L 450 747 L 451 746 L 453 746 L 454 745 L 457 745 L 458 744 L 459 744 L 460 743 L 462 743 L 463 742 L 466 742 L 467 741 L 469 741 L 470 740 L 474 740 L 477 737 L 478 737 L 479 736 L 481 736 L 482 735 L 486 735 L 488 733 L 490 733 L 491 732 L 492 732 L 493 731 L 496 730 L 498 728 L 500 728 L 503 725 L 505 725 L 510 722 L 512 722 L 516 718 L 517 718 L 520 715 L 521 715 L 523 713 L 524 713 L 527 710 L 528 710 L 530 708 L 531 708 L 532 707 L 533 707 L 534 706 L 537 705 L 539 703 L 540 703 L 546 697 L 546 696 L 547 695 L 547 689 L 546 688 L 546 687 L 544 685 L 544 684 L 543 684 L 542 683 L 542 682 L 543 681 L 545 681 L 546 680 L 553 680 L 555 682 L 556 682 L 558 685 L 560 685 L 561 684 L 564 683 L 569 678 L 570 678 L 572 676 L 573 676 L 576 673 L 577 673 L 580 670 L 581 670 L 581 669 L 582 668 L 583 668 L 583 667 L 590 660 L 590 659 L 591 658 L 592 658 L 593 655 L 595 653 L 596 653 L 601 648 L 601 647 L 605 643 L 605 642 L 610 637 L 610 636 L 612 634 L 612 632 L 613 631 L 614 628 L 619 623 L 621 623 L 622 624 L 623 624 L 622 624 L 621 623 L 623 621 L 624 621 L 628 617 L 629 617 L 629 616 L 630 615 L 631 615 L 631 614 L 632 613 L 632 606 L 631 605 L 631 603 L 630 602 L 630 601 L 628 599 L 628 597 L 627 596 L 627 595 L 624 590 L 624 588 L 622 586 L 621 587 L 620 586 L 617 586 L 615 588 L 610 588 L 609 589 L 597 589 L 596 590 L 593 590 L 592 589 L 591 589 L 590 590 L 586 590 L 585 589 L 584 590 L 567 590 L 566 589 L 565 590 L 527 590 L 526 589 L 525 589 L 524 590 L 511 590 L 510 589 L 509 590 L 498 590 L 497 589 L 496 590 L 495 590 L 494 589 L 491 589 L 490 590 L 488 590 L 487 589 L 473 589 L 472 590 L 471 590 L 470 589 L 467 589 L 466 590 L 464 590 L 463 589 L 455 589 L 454 590 L 450 590 L 449 589 L 447 589 L 446 590 L 424 590 L 423 589 L 421 589 L 420 590 L 396 590 L 395 589 L 394 589 L 393 590 L 392 590 L 391 589 L 387 589 L 386 590 L 379 590 L 378 589 L 376 589 L 373 586 L 373 585 L 372 584 L 372 581 L 371 580 L 371 578 L 370 577 L 370 570 L 369 569 L 369 562 L 368 561 L 368 559 L 369 558 L 369 557 L 368 556 L 368 553 L 367 552 L 367 548 L 368 547 L 368 546 L 367 545 L 367 540 L 366 539 L 366 525 L 365 524 L 365 509 L 364 508 L 364 492 L 363 491 L 363 484 L 362 483 L 362 463 L 361 462 L 361 455 L 360 454 L 360 452 L 361 451 L 361 449 L 360 448 L 360 436 L 359 435 L 359 432 L 360 431 L 359 430 L 359 421 L 358 420 L 358 411 L 357 410 L 357 394 L 356 393 L 356 384 L 355 383 L 355 381 L 356 380 L 356 379 L 355 378 L 355 366 L 354 365 L 354 348 L 353 347 L 353 332 L 352 331 L 352 319 L 351 318 L 351 313 L 350 312 L 350 297 L 349 296 L 349 289 L 348 288 L 348 277 L 349 276 L 349 273 L 350 272 L 349 271 L 349 268 L 350 267 L 350 265 L 352 263 L 352 262 L 358 256 L 358 255 L 359 254 L 359 252 L 358 251 L 358 249 L 357 248 L 357 247 L 358 246 L 359 246 L 360 247 L 363 247 L 364 248 L 368 248 L 369 249 L 373 249 L 374 250 L 385 250 L 386 251 L 393 251 L 394 252 L 404 252 L 405 253 L 409 253 L 410 254 L 416 254 L 417 255 L 426 255 L 427 256 L 434 256 L 435 257 L 444 257 L 445 256 L 446 256 L 447 257 L 453 257 L 454 258 L 460 258 L 460 257 L 459 256 L 455 256 L 454 255 L 445 255 L 444 254 L 443 254 L 442 253 L 440 253 L 439 252 L 436 252 L 435 251 L 427 251 L 424 249 L 423 249 L 422 250 L 420 248 L 419 248 L 418 247 L 415 247 L 414 248 L 413 247 L 407 247 L 406 246 L 403 246 L 402 245 L 399 245 L 398 244 L 393 244 L 392 243 L 395 241 L 402 241 L 403 240 L 411 240 L 412 239 L 413 240 L 422 240 L 423 239 L 430 239 L 431 238 L 438 238 L 439 237 L 441 237 L 442 238 L 443 237 L 444 237 L 445 238 L 446 237 L 454 237 L 455 236 L 470 236 L 471 235 L 480 235 L 481 234 L 483 234 L 484 235 L 485 234 L 495 234 L 496 233 L 497 233 L 498 234 L 499 233 L 513 233 L 514 232 L 526 232 L 527 231 L 540 231 L 541 230 L 552 230 L 553 229 L 566 229 L 567 228 L 573 228 L 574 229 L 575 228 L 576 229 L 577 229 L 578 228 L 586 228 L 587 227 L 597 227 L 598 226 L 611 226 L 612 227 L 614 227 L 618 231 L 618 232 L 619 233 L 619 250 L 618 251 L 618 257 L 619 258 L 618 259 L 619 260 L 619 261 L 618 262 L 619 263 L 619 265 L 617 267 L 617 268 L 614 271 L 606 271 L 605 270 L 602 270 L 601 271 L 595 271 L 594 270 L 591 270 L 590 269 L 579 269 L 578 268 L 577 268 L 576 269 L 575 268 L 573 268 L 572 267 L 564 267 L 563 266 L 553 266 L 552 265 L 541 265 L 540 264 L 532 264 L 531 263 L 524 263 L 523 262 L 516 262 L 515 261 L 502 261 L 501 260 L 498 260 L 497 259 L 490 259 L 489 258 L 484 258 L 483 259 L 482 258 L 471 258 L 471 260 L 475 260 L 476 261 L 482 261 L 484 263 L 494 263 L 497 265 L 503 265 L 504 266 L 510 266 L 511 267 L 518 267 L 519 268 L 523 268 L 524 269 L 528 269 L 529 270 L 537 270 L 538 271 L 547 271 L 548 272 L 550 272 L 551 273 L 552 273 L 553 272 L 554 273 L 561 273 L 562 274 L 567 274 L 568 275 L 576 275 L 577 276 L 584 276 L 585 277 L 595 277 L 596 278 L 602 278 L 603 279 L 611 279 L 613 281 L 614 281 L 617 283 L 617 287 L 618 288 L 618 298 L 619 299 L 619 311 L 620 312 L 620 313 L 619 314 L 619 315 L 620 316 L 620 325 L 619 326 L 620 327 L 619 328 L 619 351 L 618 352 L 618 357 L 619 358 L 619 359 L 618 360 L 618 394 L 617 395 L 617 418 L 618 419 L 618 421 L 617 422 L 617 472 L 616 473 L 616 477 L 617 478 L 617 511 L 618 512 L 618 517 L 617 518 L 617 519 L 618 520 L 618 555 L 619 556 L 619 559 L 618 560 L 618 561 L 619 562 L 619 563 L 618 564 L 618 571 L 619 572 L 625 572 L 628 569 L 629 569 L 632 567 L 632 566 L 633 565 L 633 563 L 634 562 L 634 556 L 635 555 L 635 554 L 634 553 L 634 546 L 635 545 L 635 541 L 634 540 L 634 538 L 633 537 L 633 526 L 632 525 L 632 524 L 633 523 L 633 513 L 632 512 L 632 494 L 631 493 L 631 491 L 632 490 L 632 489 L 631 488 L 631 483 L 632 482 L 632 477 L 631 476 L 631 473 L 632 472 L 632 471 L 631 470 L 631 455 L 630 454 L 630 453 L 631 452 L 631 449 L 630 448 L 630 433 L 631 432 L 631 431 L 630 430 L 630 429 L 631 428 L 631 423 L 630 422 L 630 414 L 631 413 L 631 406 L 630 405 L 630 404 L 631 403 L 631 401 L 630 400 L 630 392 L 631 391 L 631 386 L 632 385 L 631 384 L 631 379 L 632 378 L 631 377 L 632 376 L 632 375 L 631 374 L 631 366 L 630 365 L 630 361 L 631 360 L 631 358 L 630 357 L 630 355 L 631 354 L 631 343 L 632 342 L 631 341 L 631 334 L 630 333 L 630 330 L 631 329 L 631 323 L 630 322 L 630 320 L 631 319 L 631 315 L 630 314 L 630 309 L 631 308 L 631 307 L 630 306 L 630 291 L 631 290 L 630 289 L 630 287 L 631 286 L 631 279 L 630 278 L 630 267 L 629 266 L 630 265 L 630 262 L 629 261 L 629 258 L 630 257 L 630 252 L 629 251 L 630 250 L 630 239 L 631 238 L 630 237 L 630 235 L 631 234 L 631 228 L 630 227 L 630 218 L 631 217 L 631 213 L 632 212 L 631 211 L 631 209 L 630 208 L 630 202 L 631 201 L 631 198 L 630 197 L 630 188 L 631 187 L 631 174 L 632 173 L 632 172 L 631 171 L 631 131 L 632 130 L 631 129 L 631 124 L 630 123 L 631 122 L 631 117 L 632 116 L 632 114 L 631 113 L 631 100 L 630 99 L 630 97 L 631 96 L 631 90 L 630 89 L 630 85 L 631 84 L 631 79 L 630 78 L 630 77 L 631 76 L 631 36 L 632 35 L 632 22 L 631 21 L 632 20 L 632 19 L 631 18 L 631 15 L 630 14 L 630 12 Z M 197 699 L 203 705 L 204 705 L 206 707 L 206 709 L 205 710 L 205 711 L 201 715 L 200 715 L 199 716 L 190 716 L 187 714 L 187 711 L 191 706 L 191 704 L 192 703 L 192 702 L 194 700 Z M 225 738 L 225 734 L 227 731 L 227 728 L 228 727 L 228 724 L 229 723 L 229 721 L 230 720 L 230 719 L 231 718 L 231 716 L 232 715 L 232 711 L 233 710 L 233 706 L 234 705 L 234 702 L 235 701 L 235 698 L 236 697 L 236 694 L 237 693 L 237 690 L 239 687 L 240 688 L 240 691 L 239 692 L 239 710 L 240 711 L 240 715 L 241 716 L 241 717 L 244 720 L 244 721 L 247 723 L 247 724 L 248 724 L 249 725 L 252 726 L 256 730 L 257 730 L 258 731 L 260 731 L 261 732 L 267 732 L 270 730 L 272 730 L 273 729 L 274 729 L 276 727 L 277 727 L 277 726 L 279 724 L 280 724 L 283 721 L 283 719 L 285 717 L 285 716 L 284 715 L 284 712 L 283 711 L 283 709 L 281 706 L 281 704 L 280 703 L 280 702 L 277 699 L 277 698 L 276 698 L 274 696 L 269 696 L 268 695 L 267 695 L 266 696 L 264 696 L 263 697 L 262 697 L 260 699 L 259 698 L 259 700 L 258 701 L 256 698 L 256 696 L 263 689 L 264 689 L 267 687 L 269 687 L 270 686 L 271 687 L 272 686 L 278 686 L 279 687 L 281 687 L 282 688 L 285 688 L 286 689 L 287 689 L 291 693 L 292 693 L 296 697 L 296 698 L 297 699 L 297 701 L 299 703 L 299 704 L 300 705 L 300 708 L 301 709 L 302 712 L 307 717 L 307 718 L 309 720 L 309 721 L 310 721 L 316 727 L 318 727 L 319 728 L 321 728 L 324 730 L 328 730 L 329 731 L 332 731 L 335 729 L 338 729 L 339 728 L 342 727 L 351 718 L 351 717 L 352 716 L 352 714 L 353 713 L 353 708 L 352 707 L 352 705 L 351 704 L 350 701 L 346 697 L 344 697 L 343 696 L 341 696 L 340 695 L 338 695 L 337 694 L 336 694 L 335 695 L 332 694 L 331 695 L 330 695 L 325 700 L 324 700 L 322 698 L 323 697 L 323 696 L 329 690 L 330 690 L 333 688 L 337 688 L 338 687 L 350 687 L 352 689 L 355 690 L 356 691 L 356 692 L 361 697 L 361 698 L 363 700 L 363 701 L 366 706 L 366 708 L 367 709 L 367 710 L 368 711 L 369 714 L 372 717 L 372 718 L 379 725 L 379 726 L 380 726 L 381 727 L 382 727 L 383 728 L 384 728 L 385 729 L 386 729 L 391 732 L 393 732 L 394 733 L 409 733 L 410 732 L 411 732 L 414 729 L 415 729 L 417 727 L 417 726 L 419 724 L 420 724 L 420 723 L 423 720 L 423 718 L 424 717 L 424 712 L 423 711 L 423 706 L 421 704 L 421 703 L 418 700 L 413 700 L 412 699 L 405 699 L 402 702 L 401 702 L 399 704 L 398 704 L 397 705 L 395 705 L 394 704 L 394 701 L 399 696 L 402 695 L 404 693 L 405 693 L 406 692 L 409 692 L 410 691 L 421 691 L 422 692 L 425 692 L 426 693 L 428 693 L 429 694 L 432 695 L 435 698 L 436 698 L 437 699 L 437 700 L 438 701 L 439 704 L 440 705 L 441 705 L 443 707 L 443 708 L 444 708 L 449 713 L 449 716 L 452 719 L 452 720 L 456 724 L 456 725 L 457 726 L 457 728 L 455 730 L 454 730 L 451 732 L 448 732 L 446 734 L 443 734 L 442 735 L 435 735 L 433 737 L 429 737 L 428 738 L 426 738 L 425 739 L 422 739 L 421 740 L 418 740 L 415 742 L 409 742 L 408 743 L 405 743 L 404 744 L 400 744 L 399 745 L 392 745 L 391 746 L 389 746 L 388 747 L 384 747 L 383 748 L 378 748 L 377 749 L 372 749 L 371 750 L 368 750 L 367 751 L 366 750 L 365 751 L 361 751 L 360 752 L 358 752 L 357 753 L 353 753 L 352 754 L 347 754 L 346 755 L 341 755 L 340 756 L 336 756 L 335 757 L 331 757 L 330 758 L 327 758 L 326 759 L 323 759 L 322 760 L 320 760 L 319 761 L 316 761 L 315 762 L 313 762 L 312 761 L 310 761 L 309 760 L 308 760 L 303 757 L 300 757 L 295 754 L 293 754 L 292 753 L 290 753 L 289 752 L 287 752 L 286 751 L 284 751 L 281 749 L 276 749 L 275 748 L 269 748 L 268 747 L 265 747 L 264 746 L 262 746 L 261 745 L 259 745 L 258 744 L 253 744 L 252 743 L 247 743 L 246 742 L 245 743 L 243 741 L 236 741 L 235 740 L 228 740 Z M 466 699 L 467 698 L 467 696 L 468 695 L 469 692 L 473 688 L 474 688 L 476 686 L 477 686 L 480 684 L 482 684 L 483 683 L 486 683 L 487 682 L 492 682 L 493 683 L 497 683 L 498 684 L 499 684 L 500 685 L 503 686 L 508 691 L 508 692 L 510 694 L 510 695 L 514 699 L 514 701 L 515 702 L 515 706 L 509 712 L 508 712 L 506 714 L 504 714 L 503 713 L 500 713 L 498 711 L 498 706 L 497 705 L 497 702 L 496 701 L 496 700 L 491 695 L 489 695 L 488 694 L 485 694 L 484 693 L 479 693 L 478 694 L 475 695 L 473 697 L 472 697 L 472 698 L 469 701 L 468 701 Z M 162 678 L 163 679 L 163 682 L 164 683 L 164 687 L 165 688 L 165 689 L 167 691 L 167 692 L 170 695 L 171 695 L 172 696 L 175 697 L 177 699 L 177 700 L 175 702 L 175 703 L 174 704 L 173 704 L 171 706 L 170 706 L 169 707 L 165 707 L 164 708 L 161 708 L 160 707 L 158 707 L 157 708 L 154 708 L 153 707 L 150 707 L 149 706 L 149 704 L 152 701 L 152 700 L 153 699 L 153 697 L 156 692 L 156 689 L 157 688 L 157 686 L 158 685 L 158 683 L 161 680 L 161 679 Z M 597 600 L 596 601 L 587 601 L 586 602 L 579 602 L 578 603 L 566 603 L 565 604 L 564 604 L 563 603 L 562 604 L 560 604 L 559 603 L 558 603 L 557 604 L 556 604 L 555 603 L 552 603 L 551 604 L 543 604 L 542 605 L 537 605 L 536 606 L 535 605 L 534 606 L 533 605 L 531 605 L 530 606 L 524 606 L 523 607 L 519 607 L 518 608 L 498 608 L 497 609 L 495 609 L 494 608 L 491 608 L 490 609 L 484 609 L 483 610 L 482 609 L 478 609 L 477 610 L 469 610 L 468 611 L 459 611 L 458 612 L 442 612 L 441 613 L 435 613 L 434 614 L 412 614 L 411 615 L 403 615 L 402 616 L 390 616 L 389 617 L 377 617 L 376 618 L 369 618 L 368 619 L 357 619 L 356 620 L 345 620 L 344 619 L 343 620 L 337 620 L 336 621 L 313 621 L 312 622 L 311 622 L 310 621 L 306 621 L 305 622 L 300 622 L 299 623 L 298 622 L 295 622 L 294 623 L 293 622 L 288 622 L 287 623 L 286 622 L 282 622 L 281 623 L 270 623 L 269 624 L 262 624 L 261 625 L 259 625 L 258 626 L 256 626 L 254 628 L 252 628 L 247 633 L 247 634 L 244 636 L 244 637 L 243 638 L 243 640 L 242 641 L 242 642 L 239 647 L 239 648 L 240 649 L 239 650 L 239 653 L 238 654 L 238 656 L 237 657 L 237 659 L 236 660 L 236 664 L 235 665 L 235 668 L 232 673 L 231 673 L 227 669 L 225 669 L 224 668 L 216 668 L 215 667 L 214 668 L 212 668 L 211 667 L 208 669 L 200 669 L 199 668 L 197 668 L 195 666 L 194 666 L 191 663 L 190 663 L 189 662 L 185 662 L 184 661 L 182 661 L 181 660 L 180 660 L 177 657 L 176 657 L 175 656 L 175 652 L 177 650 L 177 648 L 178 647 L 178 646 L 179 645 L 179 644 L 180 643 L 181 640 L 184 637 L 184 636 L 185 635 L 185 634 L 186 633 L 187 630 L 189 628 L 189 626 L 190 625 L 190 623 L 192 621 L 193 618 L 195 616 L 195 615 L 196 614 L 196 613 L 197 612 L 198 609 L 207 600 L 209 600 L 210 599 L 222 599 L 223 600 L 241 600 L 242 599 L 243 599 L 244 600 L 250 600 L 251 599 L 258 599 L 259 600 L 275 600 L 276 599 L 278 599 L 279 600 L 287 600 L 288 599 L 306 599 L 307 600 L 320 600 L 321 599 L 329 599 L 330 600 L 334 600 L 335 599 L 349 599 L 350 600 L 351 599 L 359 599 L 360 600 L 361 600 L 362 599 L 411 599 L 412 598 L 415 598 L 416 599 L 425 599 L 426 598 L 430 598 L 431 599 L 432 598 L 433 598 L 434 599 L 442 599 L 443 600 L 444 600 L 445 599 L 454 599 L 455 598 L 456 599 L 466 599 L 467 600 L 468 600 L 469 599 L 484 599 L 485 600 L 489 600 L 490 599 L 596 599 Z M 634 541 L 635 542 L 635 544 L 634 545 L 633 544 L 633 542 Z M 293 276 L 298 276 L 299 275 L 311 275 L 312 274 L 313 275 L 331 275 L 334 277 L 334 279 L 335 280 L 335 286 L 336 287 L 336 297 L 337 298 L 337 301 L 338 302 L 338 311 L 339 312 L 339 322 L 340 323 L 340 329 L 341 330 L 340 331 L 340 338 L 341 339 L 340 340 L 340 343 L 341 344 L 341 354 L 342 355 L 341 356 L 342 357 L 342 370 L 343 371 L 343 383 L 344 384 L 344 398 L 345 399 L 345 415 L 346 416 L 346 428 L 347 429 L 346 430 L 346 431 L 347 432 L 347 434 L 346 435 L 347 436 L 347 445 L 348 446 L 348 458 L 349 459 L 349 469 L 350 470 L 350 484 L 351 485 L 351 497 L 352 498 L 352 499 L 351 500 L 352 501 L 352 514 L 353 515 L 353 525 L 354 526 L 354 530 L 353 531 L 354 532 L 354 544 L 355 545 L 355 555 L 356 556 L 356 570 L 357 571 L 357 581 L 358 582 L 358 587 L 356 590 L 348 590 L 347 589 L 346 589 L 345 590 L 322 590 L 321 589 L 320 590 L 319 590 L 318 589 L 317 589 L 316 590 L 303 590 L 302 589 L 301 590 L 283 590 L 282 589 L 271 589 L 270 588 L 268 588 L 266 586 L 267 585 L 267 581 L 268 580 L 268 561 L 269 560 L 269 551 L 270 550 L 269 547 L 270 546 L 270 541 L 271 540 L 271 536 L 272 535 L 272 534 L 271 533 L 271 531 L 272 530 L 272 523 L 273 522 L 272 521 L 272 520 L 273 519 L 273 498 L 274 497 L 274 487 L 275 486 L 275 476 L 276 475 L 276 462 L 277 461 L 277 443 L 278 442 L 278 426 L 279 425 L 279 423 L 278 422 L 279 421 L 279 417 L 280 416 L 280 404 L 281 403 L 281 402 L 280 401 L 280 400 L 281 399 L 281 385 L 282 384 L 282 375 L 283 374 L 283 361 L 284 360 L 284 358 L 283 357 L 284 356 L 284 343 L 285 342 L 285 338 L 286 337 L 286 334 L 285 333 L 285 329 L 286 328 L 286 321 L 288 319 L 288 308 L 289 307 L 288 306 L 288 299 L 289 298 L 289 295 L 290 294 L 290 291 L 291 290 L 290 289 L 290 281 L 291 280 L 291 278 Z M 290 264 L 292 267 L 292 268 L 291 269 L 289 267 L 289 265 Z M 285 257 L 286 257 L 290 262 L 290 264 L 289 265 L 286 262 L 286 261 L 284 258 Z M 326 255 L 327 256 L 327 257 L 326 258 L 326 266 L 324 269 L 320 269 L 319 268 L 319 266 L 320 265 L 320 261 L 321 260 L 321 257 L 323 255 Z M 295 255 L 297 255 L 298 256 L 299 256 L 301 259 L 301 264 L 302 265 L 302 268 L 301 269 L 299 269 L 297 267 L 297 264 L 296 263 L 296 261 L 294 258 L 294 256 Z M 345 254 L 346 255 L 346 256 L 345 257 L 345 258 L 344 259 L 343 259 L 343 260 L 339 265 L 338 268 L 337 269 L 336 268 L 335 269 L 334 269 L 333 268 L 333 264 L 337 260 L 337 258 L 338 257 L 339 257 L 341 255 L 342 255 L 343 254 Z M 310 254 L 311 254 L 314 257 L 314 260 L 315 261 L 315 263 L 314 264 L 315 265 L 315 267 L 313 269 L 311 269 L 310 268 L 309 269 L 308 269 L 306 267 L 306 265 L 305 264 L 305 260 L 304 259 L 304 257 L 305 256 L 306 256 L 307 255 L 309 255 Z M 277 239 L 278 240 L 278 242 L 277 243 L 276 242 L 276 240 Z M 243 238 L 244 237 L 247 237 L 248 238 L 247 239 L 244 239 Z M 293 234 L 294 233 L 297 233 L 299 235 L 299 236 L 300 237 L 300 239 L 299 240 L 296 240 L 293 237 Z M 342 231 L 343 232 L 342 233 L 342 236 L 340 238 L 339 238 L 336 240 L 335 239 L 335 238 L 336 237 L 336 235 L 340 231 Z M 296 225 L 297 224 L 302 224 L 303 225 L 303 228 L 305 230 L 306 230 L 309 232 L 309 237 L 308 238 L 304 234 L 304 233 Z M 278 224 L 280 227 L 280 228 L 279 229 L 279 237 L 278 238 L 276 236 L 276 231 L 277 230 L 277 225 Z M 338 223 L 340 225 L 333 232 L 333 233 L 331 235 L 331 236 L 329 238 L 329 239 L 328 240 L 327 240 L 326 239 L 326 231 L 328 229 L 330 229 L 332 227 L 332 225 L 333 224 L 334 224 L 335 223 L 336 224 L 337 224 Z M 317 223 L 319 223 L 320 224 L 320 242 L 318 244 L 316 244 L 315 243 L 315 228 L 316 227 L 316 224 Z M 282 224 L 283 223 L 284 224 L 284 225 L 283 226 L 282 225 Z M 287 222 L 289 224 L 289 240 L 287 242 L 286 242 L 285 241 L 285 224 Z M 351 221 L 352 221 L 353 222 L 353 224 L 354 225 L 354 227 L 352 229 L 351 229 L 350 228 L 350 222 Z M 240 222 L 241 221 L 242 222 L 241 223 Z M 29 219 L 31 219 L 34 221 L 35 220 L 43 220 L 44 221 L 45 221 L 46 220 L 49 220 L 50 221 L 54 221 L 55 222 L 56 222 L 57 221 L 63 221 L 64 222 L 67 222 L 68 221 L 69 222 L 78 222 L 79 223 L 80 223 L 81 222 L 84 222 L 85 223 L 105 223 L 106 224 L 121 224 L 122 225 L 141 225 L 142 226 L 159 226 L 160 227 L 164 227 L 165 226 L 166 226 L 167 227 L 173 227 L 174 228 L 175 227 L 177 227 L 178 228 L 180 228 L 181 227 L 182 228 L 195 228 L 196 229 L 214 229 L 215 230 L 228 230 L 229 231 L 226 233 L 218 233 L 217 234 L 210 234 L 209 235 L 203 235 L 202 236 L 200 236 L 199 235 L 198 235 L 197 236 L 193 236 L 192 237 L 190 237 L 189 238 L 192 240 L 210 240 L 211 239 L 212 240 L 217 240 L 218 239 L 232 239 L 233 238 L 243 238 L 244 239 L 243 240 L 239 240 L 238 241 L 236 241 L 235 242 L 233 242 L 230 244 L 229 243 L 228 244 L 224 244 L 223 245 L 217 245 L 216 246 L 214 246 L 213 247 L 209 247 L 208 248 L 204 248 L 203 249 L 202 249 L 201 250 L 200 250 L 199 251 L 196 252 L 195 253 L 195 254 L 196 255 L 209 255 L 210 254 L 212 254 L 213 253 L 221 253 L 222 252 L 225 252 L 226 251 L 228 251 L 229 250 L 232 250 L 233 249 L 236 249 L 237 248 L 242 248 L 243 247 L 249 247 L 250 246 L 251 246 L 252 247 L 253 246 L 255 246 L 256 245 L 262 245 L 263 244 L 265 244 L 266 243 L 270 243 L 272 245 L 271 246 L 271 251 L 272 252 L 272 256 L 278 263 L 278 266 L 279 267 L 279 270 L 280 271 L 279 272 L 279 294 L 278 295 L 278 308 L 277 309 L 277 315 L 276 316 L 276 318 L 277 319 L 277 320 L 276 321 L 276 326 L 275 327 L 275 334 L 274 335 L 274 346 L 273 347 L 273 358 L 272 359 L 272 368 L 271 369 L 271 384 L 270 385 L 270 391 L 269 392 L 269 404 L 268 405 L 268 415 L 267 416 L 267 429 L 266 430 L 266 442 L 265 443 L 265 449 L 264 450 L 265 451 L 265 458 L 264 459 L 264 467 L 263 468 L 263 478 L 262 479 L 262 490 L 261 491 L 261 506 L 260 507 L 260 517 L 259 518 L 259 531 L 258 532 L 258 548 L 257 549 L 258 550 L 258 552 L 257 553 L 257 562 L 256 563 L 256 574 L 255 575 L 255 581 L 254 582 L 254 584 L 253 585 L 253 587 L 251 590 L 248 590 L 247 591 L 246 591 L 245 590 L 220 590 L 219 589 L 216 589 L 215 588 L 214 589 L 211 590 L 209 592 L 207 592 L 206 593 L 204 593 L 203 594 L 201 594 L 198 597 L 197 597 L 196 598 L 195 598 L 193 600 L 192 600 L 192 601 L 188 606 L 188 607 L 187 608 L 187 609 L 186 610 L 186 611 L 183 616 L 183 618 L 181 620 L 181 621 L 180 622 L 180 623 L 179 624 L 178 627 L 176 629 L 176 630 L 175 631 L 175 632 L 173 634 L 173 636 L 172 637 L 171 636 L 171 632 L 172 631 L 172 628 L 171 627 L 171 625 L 170 624 L 170 621 L 168 618 L 168 615 L 163 610 L 163 609 L 162 609 L 157 604 L 156 604 L 155 603 L 151 603 L 148 601 L 147 602 L 146 601 L 144 601 L 143 602 L 142 601 L 139 601 L 136 603 L 132 603 L 131 604 L 128 604 L 127 605 L 125 605 L 123 607 L 122 607 L 120 609 L 120 610 L 119 611 L 118 611 L 118 612 L 116 615 L 116 618 L 115 619 L 115 620 L 116 621 L 116 625 L 117 626 L 117 628 L 118 629 L 119 632 L 123 636 L 124 636 L 125 637 L 126 637 L 131 640 L 140 640 L 141 639 L 142 639 L 144 641 L 144 642 L 143 643 L 143 647 L 142 648 L 142 649 L 141 650 L 141 651 L 140 652 L 139 655 L 137 657 L 137 658 L 136 659 L 133 660 L 131 662 L 130 662 L 129 663 L 127 663 L 126 664 L 121 664 L 118 662 L 115 662 L 113 660 L 110 659 L 109 658 L 109 657 L 104 652 L 103 652 L 102 651 L 102 649 L 101 648 L 101 632 L 102 631 L 102 620 L 103 619 L 103 618 L 102 619 L 101 618 L 101 617 L 99 614 L 100 613 L 99 613 L 98 612 L 98 611 L 97 610 L 96 607 L 95 607 L 91 603 L 91 601 L 90 601 L 89 602 L 88 601 L 86 601 L 85 600 L 82 600 L 81 599 L 77 599 L 76 598 L 73 598 L 72 597 L 65 597 L 64 598 L 60 598 L 59 599 L 56 599 L 55 600 L 52 601 L 50 603 L 49 603 L 45 607 L 45 608 L 43 611 L 43 616 L 42 617 L 42 619 L 43 620 L 43 623 L 46 626 L 46 627 L 49 630 L 49 631 L 51 633 L 52 633 L 55 635 L 64 635 L 65 634 L 67 634 L 70 632 L 72 632 L 76 627 L 78 630 L 78 636 L 77 637 L 77 639 L 76 640 L 76 641 L 70 647 L 68 647 L 67 648 L 62 648 L 61 649 L 60 649 L 59 648 L 57 648 L 56 649 L 55 649 L 53 647 L 50 646 L 46 642 L 45 642 L 43 640 L 43 639 L 39 635 L 38 632 L 35 629 L 35 628 L 34 627 L 33 624 L 31 622 L 31 621 L 30 620 L 30 618 L 27 613 L 27 611 L 25 609 L 25 603 L 23 600 L 23 595 L 22 594 L 22 593 L 23 592 L 22 591 L 22 588 L 21 587 L 22 586 L 22 584 L 21 583 L 21 572 L 22 571 L 22 567 L 21 566 L 21 563 L 22 562 L 22 560 L 21 559 L 21 548 L 20 547 L 20 545 L 21 544 L 21 537 L 22 536 L 22 534 L 21 533 L 21 529 L 22 528 L 22 519 L 23 518 L 23 514 L 22 513 L 22 489 L 23 488 L 23 485 L 22 484 L 22 479 L 23 478 L 23 475 L 22 474 L 22 462 L 21 461 L 21 449 L 22 448 L 22 447 L 21 446 L 21 433 L 20 432 L 20 430 L 21 429 L 20 428 L 20 426 L 21 425 L 21 418 L 22 417 L 22 414 L 21 413 L 21 409 L 20 408 L 20 407 L 21 406 L 21 404 L 20 403 L 20 395 L 21 394 L 21 393 L 20 392 L 20 377 L 19 376 L 20 375 L 20 356 L 21 355 L 20 354 L 20 348 L 21 347 L 20 346 L 20 339 L 19 338 L 20 337 L 20 320 L 19 319 L 19 317 L 20 316 L 20 291 L 21 290 L 22 287 L 23 286 L 24 286 L 27 283 L 28 283 L 30 281 L 31 282 L 37 282 L 38 281 L 42 281 L 43 280 L 45 280 L 46 279 L 47 280 L 48 280 L 49 279 L 52 279 L 53 278 L 58 278 L 59 277 L 62 277 L 63 276 L 69 276 L 70 275 L 78 275 L 79 274 L 83 274 L 84 273 L 88 273 L 89 272 L 97 272 L 98 271 L 101 271 L 102 270 L 107 270 L 108 269 L 115 269 L 116 268 L 119 268 L 120 267 L 121 268 L 122 268 L 123 267 L 126 267 L 127 266 L 132 266 L 133 265 L 140 265 L 141 264 L 147 264 L 148 263 L 156 263 L 157 262 L 162 262 L 163 261 L 165 261 L 166 260 L 171 260 L 172 259 L 175 259 L 176 258 L 180 258 L 181 257 L 184 257 L 185 256 L 189 256 L 190 255 L 190 254 L 189 253 L 188 253 L 187 254 L 182 254 L 181 253 L 179 253 L 178 254 L 176 254 L 175 255 L 158 255 L 157 256 L 152 256 L 151 257 L 147 257 L 146 258 L 139 258 L 138 259 L 134 259 L 133 260 L 130 260 L 129 261 L 119 261 L 118 262 L 112 262 L 111 263 L 107 263 L 106 264 L 101 264 L 100 265 L 95 265 L 94 266 L 93 265 L 91 265 L 90 266 L 85 266 L 84 267 L 78 267 L 77 268 L 74 268 L 73 269 L 68 269 L 67 270 L 58 270 L 57 271 L 53 271 L 52 272 L 48 272 L 47 273 L 42 273 L 41 274 L 36 274 L 35 275 L 34 274 L 33 275 L 31 275 L 30 276 L 29 275 L 28 276 L 25 276 L 23 274 L 23 273 L 20 270 L 20 267 L 19 266 L 20 265 L 20 263 L 19 262 L 19 241 L 18 240 L 18 239 L 19 238 L 19 230 L 20 229 L 20 226 L 21 225 L 21 224 L 23 222 L 24 222 Z M 355 219 L 356 218 L 357 219 L 356 220 Z M 294 216 L 296 214 L 298 214 L 303 210 L 305 210 L 306 209 L 308 209 L 310 207 L 312 207 L 313 206 L 323 206 L 324 207 L 326 207 L 328 209 L 329 209 L 330 210 L 333 211 L 335 213 L 337 213 L 338 214 L 339 214 L 341 216 L 340 217 L 326 217 L 324 215 L 324 214 L 322 212 L 322 211 L 319 211 L 317 213 L 317 214 L 314 217 L 312 217 L 311 218 L 310 218 L 309 217 L 295 217 Z M 315 201 L 316 200 L 317 201 L 316 202 Z M 312 199 L 313 198 L 314 199 L 313 200 Z M 311 198 L 312 197 L 313 198 L 312 199 Z M 310 197 L 311 196 L 312 197 L 311 198 Z M 314 190 L 315 189 L 317 189 L 318 190 L 319 190 L 322 193 L 322 196 L 320 198 L 319 197 L 319 194 L 318 193 L 318 192 L 317 193 L 317 196 L 316 197 L 315 196 L 315 194 L 314 193 Z M 18 163 L 20 161 L 22 161 L 23 162 L 25 162 L 26 163 L 31 163 L 32 164 L 35 164 L 36 165 L 39 165 L 40 166 L 42 166 L 43 167 L 45 167 L 46 168 L 48 168 L 49 169 L 53 169 L 54 170 L 57 170 L 58 171 L 61 171 L 62 172 L 65 172 L 66 173 L 70 173 L 71 174 L 73 174 L 74 175 L 76 175 L 77 176 L 81 176 L 82 177 L 84 177 L 85 178 L 88 178 L 89 179 L 92 179 L 93 180 L 95 180 L 96 181 L 99 181 L 100 182 L 102 182 L 103 183 L 106 183 L 107 184 L 110 184 L 111 185 L 115 185 L 116 186 L 118 186 L 119 187 L 121 187 L 122 188 L 124 188 L 125 189 L 128 189 L 129 190 L 132 190 L 133 191 L 136 191 L 137 192 L 142 192 L 143 193 L 144 193 L 145 194 L 147 194 L 150 196 L 153 196 L 154 197 L 157 197 L 158 198 L 161 198 L 162 199 L 164 199 L 165 200 L 169 200 L 170 201 L 172 201 L 175 203 L 179 203 L 180 204 L 182 204 L 183 205 L 186 205 L 187 206 L 190 206 L 193 208 L 197 208 L 198 209 L 201 209 L 202 210 L 204 210 L 205 211 L 208 211 L 209 212 L 211 212 L 212 213 L 215 213 L 216 214 L 218 214 L 219 215 L 221 215 L 222 216 L 226 216 L 227 217 L 230 217 L 231 218 L 234 218 L 235 219 L 237 219 L 238 220 L 240 220 L 241 221 L 240 222 L 222 222 L 221 221 L 186 221 L 185 220 L 184 221 L 182 221 L 181 220 L 161 220 L 160 219 L 126 219 L 125 218 L 121 218 L 120 219 L 119 218 L 118 219 L 116 219 L 115 218 L 111 218 L 110 217 L 109 218 L 100 218 L 99 217 L 98 217 L 97 218 L 95 218 L 92 216 L 91 216 L 90 217 L 87 217 L 86 216 L 75 216 L 74 215 L 42 215 L 41 214 L 36 214 L 35 213 L 28 213 L 27 212 L 25 212 L 24 211 L 23 211 L 20 208 L 20 207 L 19 206 L 19 195 L 18 194 L 18 192 L 19 191 L 19 190 L 18 189 L 18 187 L 19 186 L 19 180 L 18 179 L 19 178 L 18 177 Z M 619 157 L 619 173 L 620 174 L 620 175 L 619 176 L 619 181 L 620 182 L 620 183 L 619 184 L 620 185 L 620 202 L 619 203 L 619 212 L 618 213 L 618 216 L 615 219 L 607 219 L 606 220 L 599 220 L 598 221 L 579 221 L 578 222 L 573 222 L 572 223 L 564 223 L 563 224 L 562 223 L 551 223 L 550 224 L 535 224 L 534 225 L 523 225 L 522 226 L 512 226 L 511 227 L 486 227 L 485 228 L 476 228 L 475 229 L 474 229 L 473 228 L 467 228 L 466 229 L 453 229 L 452 230 L 447 230 L 446 229 L 445 230 L 430 230 L 429 231 L 410 231 L 409 232 L 404 232 L 403 231 L 403 230 L 404 229 L 413 226 L 413 224 L 412 223 L 408 223 L 407 224 L 406 223 L 406 222 L 407 221 L 410 221 L 413 219 L 416 219 L 419 217 L 421 217 L 422 216 L 424 216 L 425 215 L 428 215 L 429 214 L 432 214 L 435 212 L 438 212 L 439 211 L 441 211 L 442 210 L 444 210 L 445 209 L 446 209 L 451 206 L 455 206 L 456 205 L 457 205 L 458 204 L 460 204 L 463 202 L 467 202 L 468 201 L 470 201 L 471 200 L 474 200 L 475 199 L 477 199 L 480 197 L 482 197 L 483 196 L 485 196 L 488 194 L 492 194 L 493 193 L 497 193 L 502 190 L 507 190 L 510 188 L 513 188 L 515 186 L 518 186 L 519 185 L 521 185 L 522 184 L 524 184 L 527 182 L 530 182 L 533 180 L 536 180 L 537 179 L 539 179 L 540 178 L 543 178 L 546 176 L 548 176 L 549 175 L 552 175 L 555 173 L 559 173 L 560 172 L 561 172 L 562 171 L 564 171 L 567 169 L 572 169 L 574 167 L 575 167 L 576 166 L 579 166 L 580 165 L 582 165 L 583 164 L 585 164 L 588 162 L 590 162 L 591 161 L 593 161 L 594 160 L 597 160 L 598 159 L 603 159 L 604 158 L 605 158 L 608 156 L 610 156 L 613 154 L 617 154 Z M 600 149 L 600 150 L 599 151 L 597 151 L 594 153 L 592 153 L 591 154 L 589 154 L 586 156 L 584 156 L 583 157 L 581 157 L 578 159 L 575 159 L 572 161 L 570 161 L 569 162 L 567 162 L 566 163 L 564 163 L 562 165 L 560 165 L 559 166 L 556 166 L 555 167 L 553 167 L 550 169 L 548 169 L 547 170 L 545 170 L 540 173 L 536 173 L 535 174 L 533 174 L 530 176 L 527 176 L 526 177 L 524 177 L 522 179 L 519 179 L 518 180 L 516 180 L 513 182 L 510 182 L 509 183 L 507 183 L 506 184 L 504 184 L 503 185 L 501 185 L 499 187 L 497 187 L 496 188 L 493 188 L 492 189 L 489 189 L 486 191 L 484 191 L 483 192 L 481 192 L 480 193 L 477 193 L 474 195 L 472 195 L 470 197 L 467 197 L 466 198 L 464 198 L 463 199 L 461 199 L 460 200 L 459 200 L 458 201 L 456 201 L 454 203 L 452 203 L 451 204 L 443 204 L 442 205 L 439 205 L 438 206 L 424 206 L 421 208 L 418 208 L 417 209 L 415 209 L 414 210 L 412 210 L 411 211 L 408 211 L 405 213 L 403 213 L 402 214 L 400 214 L 399 215 L 396 215 L 395 216 L 393 216 L 392 217 L 390 217 L 387 219 L 381 219 L 380 220 L 376 220 L 375 221 L 371 221 L 370 222 L 368 222 L 367 223 L 366 222 L 359 222 L 358 221 L 357 221 L 356 220 L 358 218 L 358 216 L 356 214 L 356 213 L 355 212 L 354 212 L 349 207 L 347 207 L 345 205 L 339 203 L 332 197 L 332 196 L 330 194 L 330 193 L 327 188 L 327 186 L 326 185 L 326 184 L 325 183 L 325 181 L 324 180 L 324 174 L 323 173 L 323 171 L 324 170 L 323 169 L 323 165 L 322 164 L 322 162 L 320 160 L 317 160 L 315 162 L 315 163 L 313 165 L 313 166 L 312 167 L 312 173 L 311 174 L 311 176 L 310 177 L 311 178 L 309 180 L 309 183 L 306 188 L 306 190 L 304 193 L 304 195 L 295 204 L 294 204 L 292 206 L 291 206 L 289 208 L 288 208 L 285 211 L 283 211 L 282 212 L 281 212 L 280 213 L 277 214 L 272 218 L 269 218 L 268 219 L 267 218 L 262 218 L 261 217 L 258 217 L 253 214 L 251 214 L 250 213 L 248 213 L 247 212 L 246 213 L 245 213 L 242 211 L 235 211 L 233 209 L 229 209 L 228 208 L 226 208 L 225 207 L 222 207 L 221 206 L 219 206 L 218 205 L 214 205 L 213 204 L 209 204 L 206 202 L 203 202 L 202 201 L 197 201 L 196 200 L 194 200 L 193 199 L 190 199 L 189 198 L 187 198 L 186 197 L 182 197 L 181 196 L 177 196 L 176 195 L 173 195 L 172 194 L 170 194 L 169 193 L 167 193 L 166 192 L 162 192 L 161 191 L 158 191 L 157 190 L 153 190 L 152 189 L 149 189 L 148 188 L 145 188 L 144 187 L 139 187 L 136 185 L 134 185 L 133 184 L 131 184 L 130 183 L 125 183 L 124 182 L 121 182 L 120 181 L 117 181 L 116 180 L 114 180 L 113 179 L 110 179 L 108 177 L 106 177 L 105 176 L 103 176 L 102 175 L 98 175 L 95 173 L 93 173 L 92 172 L 89 172 L 88 171 L 86 171 L 85 170 L 83 170 L 82 169 L 80 169 L 77 167 L 73 167 L 72 166 L 69 166 L 68 165 L 66 165 L 65 164 L 62 164 L 59 162 L 56 162 L 55 161 L 53 161 L 52 160 L 50 160 L 49 159 L 47 159 L 45 157 L 46 156 L 60 156 L 61 157 L 65 157 L 66 156 L 68 156 L 69 157 L 71 157 L 72 156 L 88 156 L 89 155 L 90 156 L 92 156 L 93 155 L 94 155 L 95 156 L 104 156 L 105 155 L 106 156 L 110 156 L 111 155 L 113 155 L 114 156 L 120 156 L 121 155 L 123 155 L 124 156 L 133 156 L 134 155 L 140 155 L 141 156 L 144 156 L 145 155 L 146 155 L 147 156 L 149 156 L 150 155 L 151 156 L 154 156 L 155 155 L 169 155 L 170 156 L 171 155 L 178 155 L 179 154 L 180 155 L 197 155 L 198 154 L 201 154 L 202 155 L 210 155 L 211 154 L 214 154 L 215 155 L 218 155 L 219 154 L 223 154 L 224 155 L 225 155 L 226 154 L 235 154 L 236 155 L 239 155 L 240 154 L 267 154 L 268 153 L 269 153 L 270 154 L 271 153 L 277 153 L 278 154 L 279 153 L 300 153 L 301 152 L 343 152 L 344 151 L 356 151 L 357 152 L 358 152 L 359 151 L 406 151 L 407 150 L 408 151 L 430 151 L 431 150 L 438 150 L 439 151 L 442 151 L 443 150 L 448 150 L 449 151 L 451 151 L 452 150 L 506 150 L 507 149 L 513 149 L 514 150 L 518 150 L 519 149 L 520 150 L 521 149 L 534 149 L 535 148 L 536 149 L 558 149 L 559 148 L 560 148 L 561 149 L 568 149 L 569 148 L 574 148 L 575 149 L 578 149 L 579 148 L 581 148 L 582 149 L 583 148 L 584 148 L 585 149 L 592 149 L 593 148 L 594 148 L 595 149 L 598 149 L 599 148 Z M 618 27 L 617 28 L 617 41 L 618 42 L 618 78 L 619 79 L 619 83 L 618 84 L 618 87 L 619 88 L 619 92 L 618 93 L 618 94 L 619 95 L 618 96 L 618 98 L 619 99 L 619 102 L 618 103 L 618 114 L 619 115 L 619 122 L 618 123 L 618 132 L 617 133 L 617 134 L 615 136 L 611 136 L 610 137 L 587 137 L 586 138 L 585 137 L 584 137 L 583 138 L 579 138 L 578 139 L 574 139 L 573 138 L 572 138 L 571 139 L 561 139 L 560 138 L 555 138 L 554 139 L 539 139 L 538 140 L 534 140 L 533 139 L 530 139 L 529 140 L 483 140 L 482 141 L 442 141 L 441 142 L 440 141 L 432 141 L 431 142 L 428 142 L 427 141 L 426 141 L 425 142 L 423 142 L 422 141 L 421 142 L 420 142 L 419 141 L 416 141 L 415 142 L 396 142 L 395 141 L 393 141 L 392 142 L 365 142 L 364 143 L 363 143 L 362 142 L 359 142 L 358 143 L 357 143 L 356 142 L 354 142 L 353 143 L 347 143 L 346 142 L 343 142 L 342 143 L 329 143 L 328 142 L 327 142 L 326 143 L 324 143 L 323 142 L 319 142 L 318 143 L 282 143 L 281 144 L 266 144 L 265 143 L 264 144 L 249 144 L 248 145 L 247 145 L 246 144 L 226 144 L 225 145 L 222 145 L 221 144 L 219 144 L 218 145 L 208 145 L 207 144 L 206 145 L 205 144 L 203 144 L 202 145 L 173 145 L 172 144 L 163 144 L 162 145 L 151 145 L 150 146 L 149 146 L 148 145 L 147 146 L 124 146 L 123 145 L 122 145 L 121 146 L 113 146 L 112 147 L 104 147 L 103 146 L 102 147 L 100 147 L 99 146 L 87 146 L 86 145 L 85 146 L 77 146 L 76 147 L 72 147 L 71 146 L 68 146 L 67 147 L 65 147 L 64 146 L 53 146 L 52 147 L 51 147 L 50 146 L 43 146 L 42 147 L 41 146 L 31 146 L 30 145 L 29 146 L 28 146 L 27 145 L 23 145 L 19 141 L 19 140 L 18 139 L 18 128 L 19 127 L 19 126 L 18 125 L 18 124 L 19 123 L 17 120 L 17 113 L 18 112 L 18 100 L 17 99 L 17 97 L 18 96 L 18 87 L 17 86 L 17 53 L 18 52 L 18 51 L 17 50 L 17 40 L 16 39 L 16 35 L 17 34 L 18 31 L 20 29 L 20 28 L 23 25 L 26 25 L 27 24 L 31 24 L 32 25 L 59 25 L 60 24 L 62 24 L 63 25 L 70 25 L 71 26 L 73 26 L 74 25 L 81 25 L 82 24 L 98 24 L 99 25 L 108 25 L 109 24 L 110 24 L 111 25 L 112 25 L 113 24 L 132 24 L 133 25 L 135 25 L 136 24 L 140 24 L 141 23 L 150 23 L 151 24 L 152 23 L 174 23 L 175 24 L 176 23 L 178 23 L 179 22 L 180 23 L 190 23 L 191 22 L 192 23 L 200 23 L 201 22 L 209 22 L 210 23 L 211 22 L 212 22 L 213 23 L 214 22 L 222 22 L 223 21 L 224 21 L 225 22 L 247 22 L 248 21 L 254 21 L 255 22 L 263 22 L 264 21 L 270 21 L 271 22 L 272 22 L 273 21 L 301 21 L 302 20 L 310 20 L 311 21 L 316 21 L 317 20 L 320 20 L 321 21 L 326 21 L 327 20 L 328 20 L 329 21 L 330 21 L 331 20 L 336 20 L 337 21 L 338 21 L 339 20 L 344 20 L 345 19 L 348 19 L 349 20 L 366 20 L 367 19 L 368 20 L 374 20 L 375 19 L 382 19 L 383 20 L 385 20 L 386 19 L 398 19 L 399 20 L 400 19 L 414 19 L 415 18 L 416 19 L 419 19 L 420 20 L 423 18 L 436 18 L 437 19 L 438 19 L 439 18 L 447 18 L 448 19 L 449 18 L 456 18 L 457 17 L 459 17 L 460 18 L 470 18 L 471 17 L 473 17 L 474 18 L 475 18 L 476 17 L 477 17 L 478 18 L 482 18 L 483 17 L 485 17 L 486 18 L 490 18 L 491 17 L 496 17 L 497 18 L 498 17 L 508 17 L 509 16 L 510 16 L 511 17 L 518 17 L 519 16 L 524 16 L 525 17 L 531 17 L 532 16 L 533 17 L 535 17 L 536 16 L 542 16 L 543 17 L 547 17 L 548 16 L 567 16 L 568 15 L 577 15 L 578 16 L 590 16 L 591 15 L 602 15 L 603 16 L 604 15 L 605 16 L 606 16 L 607 15 L 608 16 L 611 16 L 612 17 L 613 17 L 615 19 L 615 20 L 617 22 L 617 26 Z"/>
</svg>
